<?xml version="1.0" encoding="utf-8"?>
<!-- Generator: Adobe Illustrator 27.2.0, SVG Export Plug-In . SVG Version: 6.00 Build 0)  -->
<svg version="1.1" xmlns="http://www.w3.org/2000/svg" xmlns:xlink="http://www.w3.org/1999/xlink" x="0px" y="0px"
	 viewBox="0 0 427 364" style="enable-background:new 0 0 427 364;" xml:space="preserve">
<style type="text/css">
	.st0{fill:#D7E7E7;}
	.st1{fill-rule:evenodd;clip-rule:evenodd;fill:#D7E7E7;}
	.st2{fill:#80EA6E;}
	.st3{fill:#6DB33F;}
	.st4{fill:#010101;}
	.st5{fill:#FFFFFF;}
	.st6{clip-path:url(#SVGID_00000109000241184925556750000016891829626882374034_);}
</style>
<g id="Layer_2">
	<path class="st0" d="M89.1,101c-22,0-41.9,6.1-55.9,15.8c-12.8,8.9-20.7,20.9-20.7,34.1c0,27.5,34.3,49.9,76.6,49.9
		c21.9,0,41.6-6,55.5-15.5c13-8.9,21.1-21,21.1-34.4C165.7,123.3,131.4,101,89.1,101L89.1,101z"/>
	<path class="st1" d="M260.2,224h0.2c63.4-0.1,114.7-33.6,114.7-74.9c0-41.2-51.3-74.8-114.7-74.9v0c-0.1,0-0.1,0-0.2,0
		c-0.1,0-0.1,0-0.2,0v0c-63.4,0.1-114.7,33.6-114.7,74.9c0,41.2,51.3,74.8,114.7,74.9H260.2z"/>
	<path class="st2" d="M241.2,122.1c-48.3,0-91.8,13.3-122.4,34.5c-28.1,19.5-45.3,45.8-45.3,74.7c0,60.3,75.1,109.2,167.7,109.2
		c47.9,0,91-13,121.6-34c28.6-19.6,46.1-46.1,46.1-75.2C408.9,171,333.8,122.1,241.2,122.1L241.2,122.1z"/>
	<path class="st3" d="M144.6,185.2c13-8.9,21.1-21,21.1-34.4c0-5.5-1.4-10.8-3.9-15.7c-16.1,5.6-30.6,12.9-43,21.6
		c-17.6,12.2-31,27.2-38.5,43.7c2.9,0.2,5.8,0.3,8.8,0.3C111,200.7,130.7,194.8,144.6,185.2L144.6,185.2z"/>
</g>
<g id="Layer_4">
	<path class="st4" d="M377.8,199.8L377.8,199.8c-1,0-1.9,0.8-1.9,1.9l0,0c0,1,0.8,1.9,1.9,1.9l0,0l0,0c1,0,1.8-0.9,1.8-1.9
		c0,0,0,0,0,0l0,0C379.6,200.6,378.8,199.8,377.8,199.8z"/>
	<path class="st4" d="M377.8,215.9L377.8,215.9c-1,0-1.9,0.8-1.9,1.9l0,0c0,1,0.8,1.9,1.8,1.9c0,0,0,0,0,0l0,0c1,0,1.9-0.8,1.9-1.8
		v0l0,0C379.7,216.7,378.8,215.9,377.8,215.9L377.8,215.9z"/>
	<path class="st4" d="M382.5,211.6c1,0,1.9-0.8,1.9-1.9s-0.8-1.8-1.9-1.8s-1.9,0.8-1.9,1.8S381.4,211.6,382.5,211.6L382.5,211.6z"/>
	<path class="st4" d="M377.8,232L377.8,232c-1,0-1.9,0.8-1.9,1.9l0,0c0,1,0.8,1.9,1.9,1.9l0,0l0,0c1,0,1.9-0.8,1.9-1.8c0,0,0,0,0,0
		l0,0C379.7,232.9,378.8,232,377.8,232L377.8,232z"/>
	<circle class="st4" cx="382.5" cy="225.8" r="1.9"/>
	<path class="st4" d="M368.5,199.8L368.5,199.8c-1,0-1.8,0.8-1.9,1.8l0,0c0,1,0.8,1.9,1.8,1.9c0,0,0,0,0,0l0,0c1,0,1.9-0.8,1.9-1.8
		c0,0,0,0,0,0l0,0C370.3,200.6,369.5,199.8,368.5,199.8z"/>
	<path class="st4" d="M368.5,215.9L368.5,215.9c-1,0-1.9,0.8-1.9,1.8v0l0,0c0,1,0.8,1.9,1.9,1.9l0,0l0,0c1,0,1.9-0.8,1.9-1.8v0l0,0
		C370.3,216.7,369.5,215.9,368.5,215.9L368.5,215.9z"/>
	<path class="st4" d="M373.1,207.8c-1,0-1.8,0.8-1.8,1.9s0.8,1.8,1.9,1.8c1,0,1.8-0.8,1.8-1.8S374.2,207.8,373.1,207.8L373.1,207.8z
		"/>
	<path class="st4" d="M368.5,232L368.5,232c-1,0-1.9,0.8-1.9,1.8v0l0,0c0,1,0.8,1.9,1.8,1.9c0,0,0,0,0,0l0,0c1,0,1.9-0.8,1.9-1.8
		c0,0,0,0,0,0l0,0C370.3,232.9,369.5,232,368.5,232L368.5,232z"/>
	<path class="st4" d="M373.1,224c-1,0-1.8,0.8-1.8,1.9s0.8,1.8,1.9,1.8c1,0,1.8-0.8,1.8-1.8S374.2,224,373.1,224L373.1,224z"/>
	<path class="st4" d="M368.5,248.2L368.5,248.2c-1,0-1.9,0.8-1.9,1.9l0,0l0,0c0,1,0.8,1.9,1.9,1.9l0,0l0,0c1,0,1.9-0.8,1.9-1.9l0,0
		l0,0C370.3,249,369.5,248.2,368.5,248.2L368.5,248.2z"/>
	<path class="st4" d="M373.1,240.1c-1,0-1.8,0.8-1.8,1.9s0.8,1.9,1.9,1.9c1,0,1.8-0.8,1.8-1.9S374.2,240.1,373.1,240.1L373.1,240.1z
		"/>
	<path class="st4" d="M359.2,215.9L359.2,215.9c-1,0-1.9,0.8-1.9,1.8c0,0,0,0,0,0l0,0c0,1,0.8,1.9,1.8,1.9c0,0,0,0,0,0l0,0
		c1,0,1.9-0.8,1.9-1.8v0l0,0C361,216.7,360.2,215.9,359.2,215.9L359.2,215.9z"/>
	<path class="st4" d="M363.8,207.8c-0.2,0-0.3,0-0.5,0.1v3.3c-0.3-0.1-0.6-0.3-1-0.4c0.3,0.5,0.9,0.8,1.5,0.8c1,0,1.9-0.8,1.9-1.8
		C365.7,208.7,364.8,207.8,363.8,207.8C363.8,207.8,363.8,207.8,363.8,207.8L363.8,207.8z"/>
	<path class="st4" d="M359.2,232L359.2,232c-1,0-1.9,0.8-1.9,1.8c0,0,0,0,0,0l0,0c0,1,0.8,1.9,1.9,1.9l0,0l0,0c1,0,1.9-0.8,1.9-1.8
		c0,0,0,0,0,0l0,0C361,232.9,360.2,232,359.2,232L359.2,232z"/>
	<path class="st4" d="M363.8,224c-1,0-1.8,0.8-1.8,1.9s0.8,1.8,1.9,1.8c1,0,1.8-0.8,1.8-1.8C365.7,224.8,364.9,224,363.8,224
		C363.8,224,363.8,224,363.8,224z"/>
	<path class="st4" d="M359.2,248.2L359.2,248.2c-1,0-1.9,0.8-1.9,1.8c0,0,0,0,0,0l0,0c0,1,0.8,1.9,1.8,1.9c0,0,0,0,0,0l0,0
		c1,0,1.9-0.8,1.9-1.9l0,0l0,0C361,249,360.2,248.2,359.2,248.2L359.2,248.2z"/>
	<path class="st4" d="M363.8,240.1c-1,0-1.8,0.8-1.8,1.9c0,1,0.8,1.8,1.9,1.8c1,0,1.8-0.8,1.8-1.8
		C365.7,240.9,364.9,240.1,363.8,240.1C363.8,240.1,363.8,240.1,363.8,240.1z"/>
	<path class="st4" d="M359.2,264.3L359.2,264.3c-1,0-1.9,0.8-1.9,1.9l0,0c0,1,0.8,1.9,1.8,1.9c0,0,0,0,0,0l0,0c1,0,1.9-0.8,1.9-1.9
		l0,0l0,0C361,265.2,360.2,264.3,359.2,264.3C359.2,264.3,359.2,264.3,359.2,264.3z"/>
	<path class="st4" d="M363.8,256.3c-1,0-1.8,0.8-1.8,1.9c0,1,0.8,1.8,1.9,1.8c1,0,1.8-0.8,1.8-1.8
		C365.7,257.1,364.9,256.3,363.8,256.3C363.8,256.3,363.8,256.3,363.8,256.3z"/>
	<path class="st4" d="M359.2,280.5L359.2,280.5c-1,0-1.9,0.8-1.9,1.8c0,0,0,0,0,0l0,0c0,1,0.8,1.9,1.8,1.9c0,0,0,0,0,0l0,0
		c1,0,1.9-0.8,1.9-1.9l0,0l0,0C361,281.3,360.2,280.5,359.2,280.5L359.2,280.5z"/>
	<path class="st4" d="M363.8,272.4c-1,0-1.9,0.8-1.9,1.9c0,1,0.8,1.9,1.9,1.9c1,0,1.9-0.8,1.9-1.9c0,0,0,0,0,0
		C365.7,273.2,364.9,272.4,363.8,272.4C363.8,272.4,363.8,272.4,363.8,272.4z"/>
	<path class="st4" d="M349.9,215.9L349.9,215.9c-1,0-1.9,0.8-1.9,1.8v0l0,0c0,1,0.8,1.9,1.8,1.9h0l0,0c1,0,1.9-0.8,1.9-1.8v0l0,0
		C351.7,216.7,350.9,215.9,349.9,215.9L349.9,215.9z"/>
	<path class="st4" d="M355.6,208.3c-0.4-0.1-0.8-0.3-1.2-0.4c-1,0-1.8,0.9-1.8,1.9s0.9,1.8,1.9,1.8c1,0,1.8-0.8,1.8-1.8
		C356.3,209.1,356.1,208.6,355.6,208.3z"/>
	<path class="st4" d="M349.9,232L349.9,232c-1,0-1.9,0.8-1.9,1.8v0l0,0c0,1,0.8,1.9,1.8,1.9c0,0,0,0,0,0l0,0c1,0,1.9-0.8,1.9-1.8
		c0,0,0,0,0,0l0,0C351.7,232.9,350.9,232,349.9,232L349.9,232z"/>
	<path class="st4" d="M354.5,224c-1,0-1.8,0.8-1.8,1.9s0.8,1.8,1.9,1.8c1,0,1.8-0.8,1.8-1.8C356.4,224.8,355.5,224,354.5,224
		C354.5,224,354.5,224,354.5,224z"/>
	<path class="st4" d="M349.9,248.2L349.9,248.2c-1,0-1.9,0.8-1.9,1.9l0,0l0,0c0,1,0.8,1.9,1.8,1.9h0l0,0c1,0,1.9-0.8,1.9-1.9l0,0
		l0,0C351.7,249,350.9,248.2,349.9,248.2L349.9,248.2z"/>
	<path class="st4" d="M354.5,240.1c-1,0-1.8,0.8-1.8,1.9s0.8,1.9,1.9,1.9c1,0,1.8-0.8,1.8-1.9S355.5,240.1,354.5,240.1L354.5,240.1z
		"/>
	<path class="st4" d="M349.9,264.3L349.9,264.3c-1,0-1.9,0.8-1.9,1.8c0,0,0,0,0,0l0,0c0,1,0.8,1.9,1.8,1.9h0l0,0
		c1,0,1.9-0.8,1.9-1.9l0,0l0,0C351.7,265.2,350.9,264.3,349.9,264.3C349.9,264.3,349.9,264.3,349.9,264.3z"/>
	<path class="st4" d="M354.5,256.3c-1,0-1.8,0.8-1.8,1.9s0.8,1.9,1.9,1.9c1,0,1.8-0.8,1.8-1.9C356.4,257.1,355.5,256.3,354.5,256.3
		C354.5,256.3,354.5,256.3,354.5,256.3z"/>
	<path class="st4" d="M349.9,280.5L349.9,280.5c-1,0-1.9,0.8-1.9,1.9l0,0l0,0c0,1,0.8,1.9,1.8,1.9h0l0,0c1,0,1.9-0.8,1.9-1.9l0,0
		l0,0C351.7,281.3,350.9,280.5,349.9,280.5L349.9,280.5z"/>
	<path class="st4" d="M354.5,272.4c-1,0-1.9,0.8-1.9,1.9s0.8,1.9,1.9,1.9c1,0,1.9-0.8,1.9-1.9c0,0,0,0,0,0
		C356.4,273.2,355.5,272.4,354.5,272.4L354.5,272.4z"/>
	<path class="st4" d="M354.5,288.5c-1,0-1.8,0.8-1.8,1.9s0.8,1.9,1.9,1.9c1,0,1.8-0.8,1.8-1.9S355.5,288.5,354.5,288.5L354.5,288.5z
		"/>
	<path class="st4" d="M340.5,215.9L340.5,215.9c-1,0-1.9,0.8-1.9,1.8v0l0,0c0,1,0.8,1.9,1.8,1.9h0l0,0c1,0,1.9-0.8,1.9-1.8
		c0,0,0,0,0,0l0,0C342.4,216.7,341.6,215.9,340.5,215.9C340.5,215.9,340.5,215.9,340.5,215.9z"/>
	<path class="st4" d="M345.2,207.8c-1,0-1.9,0.8-1.9,1.9s0.8,1.8,1.9,1.8s1.9-0.8,1.9-1.8S346.2,207.8,345.2,207.8L345.2,207.8z"/>
	<path class="st4" d="M340.5,232L340.5,232c-1,0-1.9,0.8-1.9,1.8v0l0,0c0,1,0.8,1.9,1.8,1.9c0,0,0,0,0,0l0,0c1,0,1.9-0.8,1.9-1.9
		l0,0l0,0C342.4,232.9,341.6,232,340.5,232C340.5,232,340.5,232,340.5,232z"/>
	<circle class="st4" cx="345.2" cy="225.8" r="1.9"/>
	<path class="st4" d="M340.5,248.2L340.5,248.2c-1,0-1.9,0.8-1.9,1.9l0,0l0,0c0,1,0.8,1.9,1.8,1.9h0l0,0c1,0,1.9-0.8,1.9-1.8
		c0,0,0,0,0,0l0,0C342.4,249,341.6,248.2,340.5,248.2C340.5,248.2,340.5,248.2,340.5,248.2z"/>
	<path class="st4" d="M345.2,240.1c-1,0-1.9,0.8-1.9,1.9s0.8,1.9,1.9,1.9c1,0,1.9-0.8,1.9-1.9S346.2,240.1,345.2,240.1L345.2,240.1z
		"/>
	<path class="st4" d="M340.5,264.3L340.5,264.3c-1,0-1.9,0.8-1.9,1.8c0,0,0,0,0,0l0,0c0,1,0.8,1.9,1.8,1.9h0l0,0
		c1,0,1.9-0.8,1.9-1.8c0,0,0,0,0,0l0,0C342.4,265.1,341.6,264.3,340.5,264.3z"/>
	<path class="st4" d="M345.2,256.3c-1,0-1.9,0.8-1.9,1.9s0.8,1.9,1.9,1.9c1,0,1.9-0.8,1.9-1.9S346.2,256.3,345.2,256.3L345.2,256.3z
		"/>
	<path class="st4" d="M340.5,280.5L340.5,280.5c-1,0-1.9,0.8-1.9,1.9l0,0l0,0c0,1,0.8,1.9,1.8,1.9h0l0,0c1,0,1.9-0.8,1.9-1.8
		c0,0,0,0,0,0l0,0C342.4,281.3,341.6,280.5,340.5,280.5C340.5,280.5,340.5,280.5,340.5,280.5z"/>
	<path class="st4" d="M345.2,272.4c-1,0-1.9,0.8-1.9,1.9c0,1,0.8,1.9,1.9,1.9c1,0,1.9-0.8,1.9-1.9c0,0,0,0,0,0
		C347,273.2,346.2,272.4,345.2,272.4L345.2,272.4z"/>
	<path class="st4" d="M340.5,296.6L340.5,296.6c-1,0-1.9,0.8-1.9,1.8c0,0,0,0,0,0l0,0c0,1,0.8,1.9,1.8,1.9h0l0,0
		c1,0,1.9-0.8,1.9-1.8c0,0,0,0,0,0l0,0C342.4,297.4,341.6,296.6,340.5,296.6z"/>
	<circle class="st4" cx="345.2" cy="290.4" r="1.9"/>
	<path class="st4" d="M331.2,199.8L331.2,199.8c-1,0-1.9,0.8-1.9,1.8v0l0,0c0,1,0.8,1.9,1.8,1.9c0,0,0,0,0,0l0,0
		c1,0,1.9-0.8,1.9-1.8c0,0,0,0,0,0l0,0C333.1,200.6,332.2,199.8,331.2,199.8L331.2,199.8z"/>
	<path class="st4" d="M331.2,215.9L331.2,215.9c-1,0-1.9,0.8-1.9,1.8v0l0,0c0,1,0.8,1.9,1.8,1.9h0l0,0c1,0,1.9-0.8,1.9-1.8v0l0,0
		C333.1,216.7,332.2,215.9,331.2,215.9L331.2,215.9z"/>
	<path class="st4" d="M335.9,207.8c-1,0-1.9,0.8-1.9,1.9s0.8,1.8,1.9,1.8s1.9-0.8,1.9-1.8S336.9,207.8,335.9,207.8L335.9,207.8z"/>
	<path class="st4" d="M331.2,232L331.2,232c-1,0-1.9,0.8-1.9,1.8v0l0,0c0,1,0.8,1.9,1.8,1.9c0,0,0,0,0,0l0,0c1,0,1.9-0.8,1.9-1.8
		c0,0,0,0,0,0l0,0C333.1,232.9,332.2,232,331.2,232L331.2,232z"/>
	<circle class="st4" cx="335.9" cy="225.8" r="1.9"/>
	<path class="st4" d="M331.2,248.2L331.2,248.2c-1,0-1.9,0.8-1.9,1.9l0,0l0,0c0,1,0.8,1.9,1.8,1.9h0l0,0c1,0,1.9-0.8,1.9-1.9l0,0
		l0,0C333.1,249,332.2,248.2,331.2,248.2L331.2,248.2z"/>
	<path class="st4" d="M335.9,240.1c-1,0-1.9,0.8-1.9,1.9s0.8,1.9,1.9,1.9c1,0,1.9-0.8,1.9-1.9S336.9,240.1,335.9,240.1L335.9,240.1z
		"/>
	<path class="st4" d="M331.2,264.3L331.2,264.3c-1,0-1.9,0.8-1.9,1.8c0,0,0,0,0,0l0,0c0,1,0.8,1.9,1.8,1.9h0l0,0
		c1,0,1.9-0.8,1.9-1.9l0,0l0,0C333.1,265.2,332.3,264.3,331.2,264.3C331.2,264.3,331.2,264.3,331.2,264.3z"/>
	<path class="st4" d="M335.9,256.3c-1,0-1.9,0.8-1.9,1.9s0.8,1.9,1.9,1.9c1,0,1.9-0.8,1.9-1.9S336.9,256.3,335.9,256.3L335.9,256.3z
		"/>
	<path class="st4" d="M331.2,280.5L331.2,280.5c-1,0-1.9,0.8-1.9,1.9l0,0l0,0c0,1,0.8,1.9,1.8,1.9h0l0,0c1,0,1.9-0.8,1.9-1.9l0,0
		l0,0C333.1,281.3,332.2,280.5,331.2,280.5L331.2,280.5z"/>
	<path class="st4" d="M335.9,272.4c-1,0-1.9,0.8-1.9,1.9c0,1,0.8,1.9,1.9,1.9c1,0,1.9-0.8,1.9-1.9c0,0,0,0,0,0
		C337.7,273.2,336.9,272.4,335.9,272.4L335.9,272.4z"/>
	<path class="st4" d="M331.2,296.6L331.2,296.6c-1,0-1.9,0.8-1.9,1.8c0,0,0,0,0,0l0,0c0,1,0.8,1.9,1.8,1.9h0l0,0
		c1,0,1.9-0.8,1.9-1.9l0,0l0,0C333.1,297.4,332.3,296.6,331.2,296.6C331.2,296.6,331.2,296.6,331.2,296.6z"/>
	<circle class="st4" cx="335.9" cy="290.4" r="1.9"/>
	<path class="st4" d="M321.9,199.8L321.9,199.8c-1,0-1.9,0.8-1.9,1.8v0l0,0c0,1,0.8,1.9,1.8,1.9c0,0,0,0,0,0l0,0
		c1,0,1.9-0.8,1.9-1.9l0,0l0,0C323.8,200.6,322.9,199.8,321.9,199.8z"/>
	<path class="st4" d="M326.6,191.7c-1,0-1.9,0.8-1.9,1.8c0,1,0.8,1.9,1.8,1.9c1,0,1.9-0.8,1.9-1.8c0,0,0,0,0,0
		C328.4,192.6,327.6,191.7,326.6,191.7z"/>
	<path class="st4" d="M321.9,215.9L321.9,215.9c-1,0-1.9,0.8-1.9,1.8v0l0,0c0,1,0.8,1.9,1.8,1.9h0l0,0c1,0,1.9-0.8,1.9-1.8
		c0,0,0,0,0,0l0,0C323.8,216.7,322.9,215.9,321.9,215.9z"/>
	<path class="st4" d="M326.6,207.8c-1,0-1.8,0.8-1.8,1.9s0.8,1.8,1.9,1.8c1,0,1.8-0.8,1.8-1.8S327.6,207.8,326.6,207.8L326.6,207.8z
		"/>
	<path class="st4" d="M321.9,232L321.9,232c-1,0-1.9,0.8-1.9,1.8v0l0,0c0,1,0.8,1.9,1.8,1.9c0,0,0,0,0,0l0,0c1,0,1.9-0.8,1.9-1.9
		l0,0l0,0C323.8,232.9,322.9,232,321.9,232z"/>
	<path class="st4" d="M326.6,224c-1,0-1.8,0.8-1.8,1.9s0.8,1.8,1.9,1.8c1,0,1.8-0.8,1.8-1.8S327.6,224,326.6,224L326.6,224z"/>
	<path class="st4" d="M321.9,248.2L321.9,248.2c-1,0-1.9,0.8-1.9,1.9l0,0l0,0c0,1,0.8,1.9,1.8,1.9h0l0,0c1,0,1.9-0.8,1.9-1.8
		c0,0,0,0,0,0l0,0C323.8,249,322.9,248.2,321.9,248.2z"/>
	<path class="st4" d="M326.6,240.1c-1,0-1.8,0.8-1.8,1.9s0.8,1.9,1.9,1.9c1,0,1.8-0.8,1.8-1.9S327.6,240.1,326.6,240.1L326.6,240.1z
		"/>
	<path class="st4" d="M321.9,264.3L321.9,264.3c-1,0-1.9,0.8-1.9,1.8c0,0,0,0,0,0l0,0c0,1,0.8,1.9,1.8,1.9h0l0,0
		c1,0,1.9-0.8,1.9-1.8c0,0,0,0,0,0l0,0C323.8,265.1,322.9,264.3,321.9,264.3z"/>
	<path class="st4" d="M326.6,256.3c-1,0-1.8,0.8-1.8,1.9s0.8,1.9,1.9,1.9c1,0,1.8-0.8,1.8-1.9S327.6,256.3,326.6,256.3L326.6,256.3z
		"/>
	<path class="st4" d="M321.9,280.5L321.9,280.5c-1,0-1.9,0.8-1.9,1.9l0,0l0,0c0,1,0.8,1.9,1.8,1.9h0l0,0c1,0,1.9-0.8,1.9-1.8
		c0,0,0,0,0,0l0,0C323.8,281.3,322.9,280.5,321.9,280.5z"/>
	<path class="st4" d="M326.6,272.4c-1,0-1.9,0.8-1.9,1.9s0.8,1.9,1.9,1.9c1,0,1.9-0.8,1.9-1.9c0,0,0,0,0,0
		C328.5,273.2,327.6,272.4,326.6,272.4L326.6,272.4z"/>
	<path class="st4" d="M321.9,296.6L321.9,296.6c-1,0-1.9,0.8-1.9,1.8c0,0,0,0,0,0l0,0c0,1,0.8,1.9,1.8,1.9h0l0,0
		c1,0,1.9-0.8,1.9-1.8c0,0,0,0,0,0l0,0C323.8,297.4,322.9,296.6,321.9,296.6z"/>
	<path class="st4" d="M326.6,288.5c-1,0-1.8,0.8-1.8,1.9s0.8,1.9,1.9,1.9c1,0,1.8-0.8,1.8-1.9S327.6,288.5,326.6,288.5L326.6,288.5z
		"/>
	<path class="st4" d="M312.6,183.6L312.6,183.6c-1,0-1.9,0.8-1.9,1.8v0l0,0c0,1,0.8,1.9,1.9,1.9l0,0l0,0c1,0,1.9-0.8,1.9-1.8v0l0,0
		C314.5,184.5,313.6,183.6,312.6,183.6L312.6,183.6z"/>
	<path class="st4" d="M312.6,199.8L312.6,199.8c-1,0-1.9,0.8-1.9,1.8v0l0,0c0,1,0.8,1.9,1.8,1.9c0,0,0,0,0,0l0,0
		c1,0,1.9-0.8,1.9-1.8c0,0,0,0,0,0l0,0C314.5,200.6,313.6,199.8,312.6,199.8z"/>
	<path class="st4" d="M317.3,191.7c-1,0-1.9,0.8-1.9,1.8s0.8,1.9,1.8,1.9c1,0,1.9-0.8,1.9-1.8c0,0,0,0,0,0
		C319.1,192.5,318.3,191.7,317.3,191.7z"/>
	<path class="st4" d="M321.9,187.3L321.9,187.3c0.1,0,0.2,0,0.3,0l-0.3-0.2c-0.6-0.4-1.2-0.8-1.8-1.2
		C320.3,186.8,321,187.3,321.9,187.3z"/>
	<path class="st4" d="M312.6,215.9L312.6,215.9c-1,0-1.9,0.8-1.9,1.8v0l0,0c0,1,0.8,1.8,1.9,1.8l0,0c1,0,1.9-0.8,1.9-1.8v0l0,0
		C314.4,216.7,313.6,215.9,312.6,215.9z"/>
	<path class="st4" d="M317.3,207.8c-1,0-1.9,0.8-1.9,1.9s0.8,1.8,1.9,1.8s1.9-0.8,1.9-1.8S318.3,207.8,317.3,207.8L317.3,207.8z"/>
	<path class="st4" d="M312.6,232L312.6,232c-1,0-1.9,0.8-1.9,1.8v0l0,0c0,1,0.8,1.9,1.8,1.9c0,0,0,0,0,0l0,0c1,0,1.9-0.8,1.9-1.8
		c0,0,0,0,0,0l0,0C314.5,232.9,313.6,232,312.6,232L312.6,232z"/>
	<path class="st4" d="M317.3,224c-1,0-1.9,0.8-1.9,1.9s0.8,1.8,1.9,1.8s1.9-0.8,1.9-1.8S318.3,224,317.3,224L317.3,224z"/>
	<path class="st4" d="M312.6,248.2L312.6,248.2c-1,0-1.9,0.8-1.9,1.9l0,0l0,0c0,1,0.8,1.8,1.9,1.8l0,0c1,0,1.9-0.8,1.9-1.9l0,0l0,0
		C314.5,249,313.6,248.2,312.6,248.2z"/>
	<path class="st4" d="M317.3,240.1c-1,0-1.9,0.8-1.9,1.9s0.8,1.9,1.9,1.9c1,0,1.9-0.8,1.9-1.9S318.3,240.1,317.3,240.1L317.3,240.1z
		"/>
	<path class="st4" d="M312.6,264.3L312.6,264.3c-1,0-1.9,0.8-1.9,1.8c0,0,0,0,0,0l0,0c0,1,0.8,1.9,1.9,1.9l0,0l0,0
		c1,0,1.9-0.8,1.9-1.9l0,0l0,0C314.5,265.2,313.6,264.3,312.6,264.3C312.6,264.3,312.6,264.3,312.6,264.3z"/>
	<path class="st4" d="M317.3,256.3c-1,0-1.9,0.8-1.9,1.9s0.8,1.9,1.9,1.9c1,0,1.9-0.8,1.9-1.9S318.3,256.3,317.3,256.3L317.3,256.3z
		"/>
	<path class="st4" d="M312.6,280.5L312.6,280.5c-1,0-1.9,0.8-1.9,1.9l0,0l0,0c0,1,0.8,1.9,1.9,1.9l0,0l0,0c1,0,1.9-0.8,1.9-1.9l0,0
		l0,0C314.5,281.3,313.6,280.5,312.6,280.5L312.6,280.5z"/>
	<path class="st4" d="M317.3,272.4c-1,0-1.9,0.8-1.9,1.9c0,1,0.8,1.9,1.9,1.9c1,0,1.9-0.8,1.9-1.9c0,0,0,0,0,0
		C319.1,273.2,318.3,272.4,317.3,272.4L317.3,272.4z"/>
	<path class="st4" d="M312.6,296.6L312.6,296.6c-1,0-1.9,0.8-1.9,1.8c0,0,0,0,0,0l0,0c0,1,0.8,1.9,1.9,1.9l0,0l0,0
		c1,0,1.9-0.8,1.9-1.9l0,0l0,0C314.5,297.4,313.6,296.6,312.6,296.6C312.6,296.6,312.6,296.6,312.6,296.6z"/>
	<path class="st4" d="M317.3,288.5c-1,0-1.9,0.8-1.9,1.9s0.8,1.9,1.9,1.9c1,0,1.9-0.8,1.9-1.9S318.3,288.5,317.3,288.5L317.3,288.5z
		"/>
	<path class="st4" d="M303.3,183.6L303.3,183.6c-1,0-1.9,0.8-1.9,1.8v0l0,0c0,1,0.8,1.9,1.9,1.9l0,0l0,0c1,0,1.9-0.8,1.9-1.8v0l0,0
		C305.1,184.5,304.3,183.6,303.3,183.6L303.3,183.6z"/>
	<path class="st4" d="M303.3,199.8L303.3,199.8c-1,0-1.9,0.8-1.9,1.8v0l0,0c0,1,0.8,1.9,1.8,1.9c0,0,0,0,0,0l0,0
		c1,0,1.9-0.8,1.9-1.8c0,0,0,0,0,0l0,0C305.1,200.6,304.3,199.8,303.3,199.8L303.3,199.8z"/>
	<path class="st4" d="M307.9,191.7c-1,0-1.9,0.8-1.9,1.8s0.8,1.9,1.8,1.9c1,0,1.9-0.8,1.9-1.8c0,0,0,0,0,0
		C309.8,192.5,309,191.7,307.9,191.7C307.9,191.7,307.9,191.7,307.9,191.7z"/>
	<path class="st4" d="M303.3,215.9L303.3,215.9c-1,0-1.9,0.8-1.9,1.8v0l0,0c0,1,0.8,1.9,1.9,1.9l0,0l0,0c1,0,1.9-0.8,1.9-1.8v0l0,0
		C305.1,216.7,304.3,215.9,303.3,215.9L303.3,215.9z"/>
	<path class="st4" d="M307.9,207.8c-1,0-1.8,0.8-1.8,1.9s0.8,1.8,1.9,1.8c1,0,1.8-0.8,1.8-1.8S309,207.8,307.9,207.8L307.9,207.8z"
		/>
	<path class="st4" d="M303.3,232L303.3,232c-1,0-1.9,0.8-1.9,1.8v0l0,0c0,1,0.8,1.9,1.8,1.9c0,0,0,0,0,0l0,0c1,0,1.9-0.8,1.9-1.8
		c0,0,0,0,0,0l0,0C305.1,232.9,304.3,232,303.3,232L303.3,232z"/>
	<path class="st4" d="M307.9,224c-1,0-1.8,0.8-1.8,1.9s0.8,1.8,1.9,1.8c1,0,1.8-0.8,1.8-1.8S309,224,307.9,224L307.9,224z"/>
	<path class="st4" d="M303.3,248.2L303.3,248.2c-1,0-1.9,0.8-1.9,1.9l0,0l0,0c0,1,0.8,1.9,1.9,1.9l0,0l0,0c1,0,1.9-0.8,1.9-1.9l0,0
		l0,0C305.1,249,304.3,248.2,303.3,248.2L303.3,248.2z"/>
	<path class="st4" d="M307.9,240.1c-1,0-1.8,0.8-1.8,1.9s0.8,1.9,1.9,1.9c1,0,1.8-0.8,1.8-1.9S309,240.1,307.9,240.1L307.9,240.1z"
		/>
	<path class="st4" d="M303.3,264.3L303.3,264.3c-1,0-1.9,0.8-1.9,1.8c0,0,0,0,0,0l0,0c0,1,0.8,1.9,1.9,1.9l0,0l0,0
		c1,0,1.9-0.8,1.9-1.9l0,0l0,0C305.1,265.2,304.3,264.3,303.3,264.3C303.3,264.3,303.3,264.3,303.3,264.3z"/>
	<path class="st4" d="M307.9,256.3c-1,0-1.8,0.8-1.8,1.9s0.8,1.9,1.9,1.9c1,0,1.8-0.8,1.8-1.9S309,256.3,307.9,256.3L307.9,256.3z"
		/>
	<path class="st4" d="M303.3,280.5L303.3,280.5c-1,0-1.9,0.8-1.9,1.9l0,0l0,0c0,1,0.8,1.9,1.9,1.9l0,0l0,0c1,0,1.9-0.8,1.9-1.9l0,0
		l0,0C305.1,281.3,304.3,280.5,303.3,280.5L303.3,280.5z"/>
	<path class="st4" d="M307.9,272.4c-1,0-1.9,0.8-1.9,1.9s0.8,1.9,1.9,1.9c1,0,1.9-0.8,1.9-1.9c0,0,0,0,0,0
		C309.8,273.2,309,272.4,307.9,272.4L307.9,272.4z"/>
	<path class="st4" d="M303.3,296.6L303.3,296.6c-1,0-1.9,0.8-1.9,1.8c0,0,0,0,0,0l0,0c0,1,0.8,1.9,1.9,1.9l0,0l0,0
		c1,0,1.9-0.8,1.9-1.9l0,0l0,0C305.1,297.4,304.3,296.6,303.3,296.6C303.3,296.6,303.3,296.6,303.3,296.6z"/>
	<path class="st4" d="M307.9,288.5c-1,0-1.8,0.8-1.8,1.9s0.8,1.9,1.9,1.9c1,0,1.8-0.8,1.8-1.9S309,288.5,307.9,288.5L307.9,288.5z"
		/>
	<path class="st4" d="M294,183.6L294,183.6c-1,0-1.9,0.8-1.9,1.8c0,0,0,0,0,0l0,0c0,1,0.8,1.9,1.8,1.9c0,0,0,0,0,0l0,0
		c1,0,1.9-0.8,1.9-1.8v0l0,0C295.8,184.5,295,183.6,294,183.6L294,183.6z"/>
	<path class="st4" d="M298.6,179.3c0.8,0,1.6-0.6,1.8-1.4c-1.2-0.3-2.4-0.5-3.6-0.7c0,0.1,0,0.2,0,0.3
		C296.8,178.4,297.6,179.3,298.6,179.3z"/>
	<path class="st4" d="M294,199.8L294,199.8c-1,0-1.9,0.8-1.9,1.8c0,0,0,0,0,0l0,0c0,1,0.8,1.9,1.9,1.9l0,0l0,0c1,0,1.9-0.8,1.9-1.8
		c0,0,0,0,0-0.1l0,0C295.8,200.6,295,199.8,294,199.8z"/>
	<path class="st4" d="M298.6,191.7c-1,0-1.9,0.8-1.9,1.9s0.8,1.9,1.9,1.9s1.9-0.8,1.9-1.9C300.5,192.5,299.7,191.7,298.6,191.7
		C298.6,191.7,298.6,191.7,298.6,191.7z"/>
	<path class="st4" d="M294,215.9L294,215.9c-1,0-1.9,0.8-1.9,1.8c0,0,0,0,0,0l0,0c0,1,0.8,1.9,1.8,1.9c0,0,0,0,0,0l0,0
		c1,0,1.9-0.8,1.9-1.8v0l0,0C295.8,216.7,295,215.9,294,215.9L294,215.9z"/>
	<path class="st4" d="M298.6,207.8c-1,0-1.8,0.8-1.8,1.9s0.8,1.8,1.9,1.8c1,0,1.8-0.8,1.8-1.8C300.5,208.7,299.6,207.8,298.6,207.8
		C298.6,207.8,298.6,207.8,298.6,207.8z"/>
	<path class="st4" d="M294,232L294,232c-1,0-1.9,0.8-1.9,1.8c0,0,0,0,0,0l0,0c0,1,0.8,1.9,1.9,1.9l0,0l0,0c1,0,1.9-0.8,1.9-1.8
		c0,0,0,0,0,0l0,0C295.8,232.9,295,232,294,232L294,232z"/>
	<circle class="st4" cx="298.6" cy="225.8" r="1.9"/>
	<path class="st4" d="M294,248.2L294,248.2c-1,0-1.9,0.8-1.9,1.8c0,0,0,0,0,0l0,0c0,1,0.8,1.9,1.8,1.9c0,0,0,0,0,0l0,0
		c1,0,1.9-0.8,1.9-1.9l0,0l0,0C295.8,249,295,248.2,294,248.2L294,248.2z"/>
	<path class="st4" d="M298.6,240.1c-1,0-1.8,0.8-1.8,1.9c0,1,0.8,1.8,1.9,1.8c1,0,1.8-0.8,1.8-1.8
		C300.5,240.9,299.6,240.1,298.6,240.1C298.6,240.1,298.6,240.1,298.6,240.1z"/>
	<path class="st4" d="M294,264.3L294,264.3c-1,0-1.9,0.8-1.9,1.9l0,0c0,1,0.8,1.9,1.8,1.9c0,0,0,0,0,0l0,0c1,0,1.9-0.8,1.9-1.9l0,0
		l0,0C295.8,265.2,295,264.3,294,264.3C294,264.3,294,264.3,294,264.3z"/>
	<path class="st4" d="M298.6,256.3c-1,0-1.8,0.8-1.8,1.9c0,1,0.8,1.8,1.9,1.8c1,0,1.8-0.8,1.8-1.8
		C300.5,257.1,299.6,256.3,298.6,256.3C298.6,256.3,298.6,256.3,298.6,256.3z"/>
	<path class="st4" d="M294,280.5L294,280.5c-1,0-1.9,0.8-1.9,1.8c0,0,0,0,0,0l0,0c0,1,0.8,1.9,1.8,1.9c0,0,0,0,0,0l0,0
		c1,0,1.9-0.8,1.9-1.9l0,0l0,0C295.8,281.3,295,280.5,294,280.5L294,280.5z"/>
	<path class="st4" d="M298.6,272.4c-1,0-1.9,0.8-1.9,1.9c0,1,0.8,1.9,1.9,1.9c1,0,1.9-0.8,1.9-1.9c0,0,0,0,0,0
		C300.5,273.2,299.6,272.4,298.6,272.4C298.6,272.4,298.6,272.4,298.6,272.4z"/>
	<path class="st4" d="M294,296.6L294,296.6c-1,0-1.9,0.8-1.9,1.9l0,0c0,1,0.8,1.9,1.8,1.9c0,0,0,0,0,0l0,0c1,0,1.9-0.8,1.9-1.9l0,0
		l0,0C295.8,297.4,295,296.6,294,296.6C294,296.6,294,296.6,294,296.6z"/>
	<circle class="st4" cx="298.6" cy="290.4" r="1.9"/>
	<path class="st4" d="M284.6,183.6L284.6,183.6c-1,0-1.9,0.8-1.9,1.8v0l0,0c0,1,0.8,1.9,1.9,1.9l0,0l0,0c1,0,1.9-0.8,1.9-1.8v0l0,0
		C286.5,184.5,285.6,183.6,284.6,183.6L284.6,183.6z"/>
	<path class="st4" d="M288,176.1c-0.7,0.7-0.7,1.9,0.1,2.6c0.7,0.7,1.9,0.7,2.6-0.1c0.3-0.3,0.5-0.8,0.5-1.3c0-0.4-0.1-0.7-0.3-1.1
		C289.9,176.3,288.9,176.2,288,176.1z"/>
	<path class="st4" d="M284.6,199.8L284.6,199.8c-1,0-1.9,0.8-1.9,1.8v0l0,0c0,1,0.8,1.9,1.8,1.9c0,0,0,0,0,0l0,0
		c1,0,1.9-0.8,1.9-1.8c0,0,0,0,0,0l0,0C286.5,200.6,285.6,199.8,284.6,199.8z"/>
	<path class="st4" d="M289.3,191.7c-1,0-1.9,0.8-1.9,1.8s0.8,1.9,1.8,1.9c1,0,1.9-0.8,1.9-1.8c0,0,0,0,0,0
		C291.2,192.5,290.3,191.7,289.3,191.7C289.3,191.7,289.3,191.7,289.3,191.7z"/>
	<path class="st4" d="M284.6,215.9L284.6,215.9c-1,0-1.9,0.8-1.9,1.8v0l0,0c0,1,0.8,1.8,1.9,1.8l0,0c1,0,1.9-0.8,1.9-1.8v0l0,0
		C286.4,216.7,285.6,215.9,284.6,215.9z"/>
	<path class="st4" d="M289.3,207.8c-1,0-1.8,0.8-1.8,1.9s0.8,1.8,1.9,1.8c1,0,1.8-0.8,1.8-1.8S290.3,207.8,289.3,207.8L289.3,207.8z
		"/>
	<path class="st4" d="M284.6,232L284.6,232c-1,0-1.9,0.8-1.9,1.8v0l0,0c0,1,0.8,1.9,1.8,1.9c0,0,0,0,0,0l0,0c1,0,1.9-0.8,1.9-1.8
		c0,0,0,0,0,0l0,0C286.5,232.9,285.6,232,284.6,232L284.6,232z"/>
	<circle class="st4" cx="289.3" cy="225.8" r="1.9"/>
	<path class="st4" d="M284.6,248.2L284.6,248.2c-1,0-1.9,0.8-1.9,1.9l0,0l0,0c0,1,0.8,1.8,1.9,1.8l0,0c1,0,1.9-0.8,1.9-1.9l0,0l0,0
		C286.5,249,285.6,248.2,284.6,248.2z"/>
	<path class="st4" d="M289.3,240.1c-1,0-1.8,0.8-1.8,1.9s0.8,1.9,1.9,1.9c1,0,1.8-0.8,1.8-1.9S290.3,240.1,289.3,240.1L289.3,240.1z
		"/>
	<path class="st4" d="M284.6,264.3L284.6,264.3c-1,0-1.9,0.8-1.9,1.8c0,0,0,0,0,0l0,0c0,1,0.8,1.9,1.9,1.9l0,0l0,0
		c1,0,1.9-0.8,1.9-1.9l0,0l0,0C286.5,265.2,285.6,264.3,284.6,264.3C284.6,264.3,284.6,264.3,284.6,264.3z"/>
	<path class="st4" d="M289.3,256.3c-1,0-1.8,0.8-1.8,1.9s0.8,1.9,1.9,1.9c1,0,1.8-0.8,1.8-1.9S290.3,256.3,289.3,256.3L289.3,256.3z
		"/>
	<path class="st4" d="M284.6,280.5L284.6,280.5c-1,0-1.9,0.8-1.9,1.9l0,0l0,0c0,1,0.8,1.9,1.9,1.9l0,0l0,0c1,0,1.9-0.8,1.9-1.9l0,0
		l0,0C286.5,281.3,285.6,280.5,284.6,280.5L284.6,280.5z"/>
	<path class="st4" d="M289.3,272.4c-1,0-1.9,0.8-1.9,1.9s0.8,1.9,1.9,1.9c1,0,1.9-0.8,1.9-1.9c0,0,0,0,0,0
		C291.2,273.2,290.3,272.4,289.3,272.4L289.3,272.4z"/>
	<path class="st4" d="M284.6,296.6L284.6,296.6c-1,0-1.9,0.8-1.9,1.8c0,0,0,0,0,0l0,0c0,1,0.8,1.9,1.9,1.9l0,0l0,0
		c1,0,1.9-0.8,1.9-1.9l0,0l0,0C286.5,297.4,285.6,296.6,284.6,296.6C284.6,296.6,284.6,296.6,284.6,296.6z"/>
	<circle class="st4" cx="289.3" cy="290.4" r="1.9"/>
	<path class="st4" d="M275.3,183.6L275.3,183.6c-1,0-1.9,0.8-1.9,1.8v0l0,0c0,1,0.8,1.9,1.8,1.9h0l0,0c1,0,1.9-0.8,1.9-1.8
		c0,0,0,0,0,0l0,0C277.2,184.5,276.4,183.6,275.3,183.6C275.3,183.6,275.3,183.6,275.3,183.6z"/>
	<path class="st4" d="M278.6,176.2c-0.7,0.7-0.7,1.9,0.1,2.6c0.7,0.7,1.9,0.7,2.6-0.1c0.3-0.3,0.5-0.8,0.5-1.3c0-0.5-0.2-1-0.6-1.4
		C280.4,176.1,279.5,176.1,278.6,176.2z"/>
	<path class="st4" d="M275.3,199.8L275.3,199.8c-1,0-1.9,0.8-1.9,1.8v0l0,0c0,1,0.8,1.9,1.8,1.9c0,0,0,0,0,0l0,0
		c1,0,1.9-0.8,1.9-1.9l0,0l0,0C277.2,200.6,276.4,199.8,275.3,199.8C275.3,199.8,275.3,199.8,275.3,199.8z"/>
	<path class="st4" d="M280,191.7c-1,0-1.9,0.8-1.9,1.8s0.8,1.9,1.8,1.9c1,0,1.9-0.8,1.9-1.8c0,0,0,0,0,0
		C281.8,192.5,281,191.7,280,191.7C280,191.7,280,191.7,280,191.7z"/>
	<path class="st4" d="M275.3,215.9L275.3,215.9c-1,0-1.9,0.8-1.9,1.8v0l0,0c0,1,0.8,1.9,1.8,1.9h0l0,0c1,0,1.9-0.8,1.9-1.8
		c0,0,0,0,0,0l0,0C277.2,216.7,276.4,215.9,275.3,215.9C275.3,215.9,275.3,215.9,275.3,215.9z"/>
	<path class="st4" d="M280,207.8c-1,0-1.8,0.8-1.8,1.9s0.8,1.8,1.9,1.8c1,0,1.8-0.8,1.8-1.8S281,207.8,280,207.8L280,207.8z"/>
	<path class="st4" d="M275.3,232L275.3,232c-1,0-1.9,0.8-1.9,1.8v0l0,0c0,1,0.8,1.9,1.8,1.9c0,0,0,0,0,0l0,0c1,0,1.9-0.8,1.9-1.9
		l0,0l0,0C277.2,232.9,276.4,232,275.3,232C275.3,232,275.3,232,275.3,232z"/>
	<path class="st4" d="M280,224c-1,0-1.8,0.8-1.8,1.9s0.8,1.8,1.9,1.8c1,0,1.8-0.8,1.8-1.8S281,224,280,224L280,224z"/>
	<path class="st4" d="M275.3,248.2L275.3,248.2c-1,0-1.9,0.8-1.9,1.9l0,0l0,0c0,1,0.8,1.9,1.8,1.9h0l0,0c1,0,1.9-0.8,1.9-1.8
		c0,0,0,0,0,0l0,0C277.2,249,276.4,248.2,275.3,248.2C275.3,248.2,275.3,248.2,275.3,248.2z"/>
	<path class="st4" d="M280,240.1c-1,0-1.8,0.8-1.8,1.9s0.8,1.9,1.9,1.9c1,0,1.8-0.8,1.8-1.9S281,240.1,280,240.1L280,240.1z"/>
	<path class="st4" d="M275.3,264.3L275.3,264.3c-1,0-1.9,0.8-1.9,1.8c0,0,0,0,0,0l0,0c0,1,0.8,1.9,1.8,1.9h0l0,0
		c1,0,1.9-0.8,1.9-1.8c0,0,0,0,0,0l0,0C277.2,265.1,276.3,264.3,275.3,264.3z"/>
	<path class="st4" d="M280,256.3c-1,0-1.8,0.8-1.8,1.9s0.8,1.9,1.9,1.9c1,0,1.8-0.8,1.8-1.9S281,256.3,280,256.3L280,256.3z"/>
	<path class="st4" d="M275.3,280.5L275.3,280.5c-1,0-1.9,0.8-1.9,1.9l0,0l0,0c0,1,0.8,1.9,1.8,1.9h0l0,0c1,0,1.9-0.8,1.9-1.8
		c0,0,0,0,0,0l0,0C277.2,281.3,276.4,280.5,275.3,280.5C275.3,280.5,275.3,280.5,275.3,280.5z"/>
	<path class="st4" d="M280,272.4c-1,0-1.9,0.8-1.9,1.9s0.8,1.9,1.9,1.9c1,0,1.9-0.8,1.9-1.9c0,0,0,0,0,0
		C281.8,273.2,281,272.4,280,272.4L280,272.4z"/>
	<path class="st4" d="M275.3,296.6L275.3,296.6c-1,0-1.9,0.8-1.9,1.8c0,0,0,0,0,0l0,0c0,1,0.8,1.9,1.8,1.9h0l0,0
		c1,0,1.9-0.8,1.9-1.8c0,0,0,0,0,0l0,0C277.2,297.4,276.3,296.6,275.3,296.6z"/>
	<path class="st4" d="M280,288.5c-1,0-1.8,0.8-1.8,1.9s0.8,1.9,1.9,1.9c1,0,1.8-0.8,1.8-1.9S281,288.5,280,288.5L280,288.5z"/>
	<path class="st4" d="M280,304.7c-1,0-1.9,0.8-1.9,1.9s0.8,1.9,1.9,1.9c1,0,1.9-0.8,1.9-1.9c0,0,0,0,0,0
		C281.8,305.5,281,304.7,280,304.7L280,304.7z"/>
	<path class="st4" d="M266,183.6L266,183.6c-1,0-1.9,0.8-1.9,1.8v0l0,0c0,1,0.8,1.9,1.9,1.9l0,0l0,0c1,0,1.9-0.8,1.9-1.8v0l0,0
		C267.9,184.5,267,183.6,266,183.6L266,183.6z"/>
	<path class="st4" d="M268.8,177.2c0,0.1,0,0.1,0,0.2c0.1,1,1,1.8,2,1.7c0.9-0.1,1.7-0.8,1.7-1.7c0-0.2,0-0.5-0.1-0.7
		C271.2,176.9,270,177,268.8,177.2z"/>
	<path class="st4" d="M266,199.8L266,199.8c-1,0-1.9,0.8-1.9,1.8v0l0,0c0,1,0.8,1.9,1.8,1.9c0,0,0,0,0,0l0,0c1,0,1.9-0.8,1.9-1.8
		c0,0,0,0,0,0l0,0C267.9,200.6,267,199.8,266,199.8L266,199.8z"/>
	<path class="st4" d="M270.7,191.7c-1,0-1.9,0.8-1.9,1.8s0.8,1.9,1.8,1.9c1,0,1.9-0.8,1.9-1.8c0,0,0,0,0,0
		C272.5,192.5,271.7,191.7,270.7,191.7z"/>
	<path class="st4" d="M266,215.9L266,215.9c-1,0-1.9,0.8-1.9,1.8v0l0,0c0,1,0.8,1.8,1.9,1.8l0,0c1,0,1.9-0.8,1.9-1.8v0l0,0
		C267.8,216.7,267,215.9,266,215.9z"/>
	<path class="st4" d="M270.7,207.8c-1,0-1.8,0.8-1.8,1.9s0.8,1.8,1.9,1.8c1,0,1.8-0.8,1.8-1.8S271.7,207.8,270.7,207.8L270.7,207.8z
		"/>
	<path class="st4" d="M266,232L266,232c-1,0-1.9,0.8-1.9,1.8v0l0,0c0,1,0.8,1.9,1.8,1.9c0,0,0,0,0,0l0,0c1,0,1.9-0.8,1.9-1.8
		c0,0,0,0,0,0l0,0C267.9,232.9,267,232,266,232L266,232z"/>
	<path class="st4" d="M270.7,224c-1,0-1.8,0.8-1.8,1.9s0.8,1.8,1.9,1.8c1,0,1.8-0.8,1.8-1.8S271.7,224,270.7,224L270.7,224z"/>
	<path class="st4" d="M266,248.2L266,248.2c-1,0-1.9,0.8-1.9,1.9l0,0l0,0c0,1,0.8,1.9,1.9,1.9l0,0l0,0c1,0,1.9-0.8,1.9-1.9l0,0l0,0
		C267.9,249,267,248.2,266,248.2L266,248.2z"/>
	<path class="st4" d="M270.7,240.1c-1,0-1.8,0.8-1.8,1.9s0.8,1.9,1.9,1.9c1,0,1.8-0.8,1.8-1.9S271.7,240.1,270.7,240.1L270.7,240.1z
		"/>
	<path class="st4" d="M266,264.3L266,264.3c-1,0-1.9,0.8-1.9,1.8c0,0,0,0,0,0l0,0c0,1,0.8,1.9,1.9,1.9l0,0l0,0c1,0,1.9-0.8,1.9-1.9
		l0,0l0,0C267.9,265.2,267,264.3,266,264.3C266,264.3,266,264.3,266,264.3z"/>
	<path class="st4" d="M270.7,256.3c-1,0-1.8,0.8-1.8,1.9s0.8,1.9,1.9,1.9c1,0,1.8-0.8,1.8-1.9S271.7,256.3,270.7,256.3L270.7,256.3z
		"/>
	<path class="st4" d="M266,280.5L266,280.5c-1,0-1.9,0.8-1.9,1.9l0,0l0,0c0,1,0.8,1.9,1.9,1.9l0,0l0,0c1,0,1.9-0.8,1.9-1.9l0,0l0,0
		C267.9,281.3,267,280.5,266,280.5L266,280.5z"/>
	<path class="st4" d="M270.7,272.4c-1,0-1.9,0.8-1.9,1.9s0.8,1.9,1.9,1.9c1,0,1.9-0.8,1.9-1.9c0,0,0,0,0,0
		C272.5,273.2,271.7,272.4,270.7,272.4L270.7,272.4z"/>
	<path class="st4" d="M266,296.6L266,296.6c-1,0-1.9,0.8-1.9,1.8c0,0,0,0,0,0l0,0c0,1,0.8,1.9,1.9,1.9l0,0l0,0c1,0,1.9-0.8,1.9-1.9
		l0,0l0,0C267.9,297.4,267,296.6,266,296.6C266,296.6,266,296.6,266,296.6z"/>
	<path class="st4" d="M270.7,288.5c-1,0-1.8,0.8-1.8,1.9s0.8,1.9,1.9,1.9c1,0,1.8-0.8,1.8-1.9S271.7,288.5,270.7,288.5L270.7,288.5z
		"/>
	<path class="st4" d="M270.7,304.7c-1,0-1.9,0.8-1.9,1.9s0.8,1.9,1.9,1.9c1,0,1.9-0.8,1.9-1.9c0,0,0,0,0,0
		C272.5,305.5,271.7,304.7,270.7,304.7L270.7,304.7z"/>
	<path class="st4" d="M256.7,183.6L256.7,183.6c-1,0-1.9,0.8-1.9,1.9l0,0l0,0c0,1,0.8,1.9,1.9,1.9c0,0,0,0,0,0l0,0
		c1,0,1.9-0.8,1.9-1.8c0,0,0,0,0,0l0,0C258.6,184.5,257.7,183.6,256.7,183.6C256.7,183.6,256.7,183.6,256.7,183.6z"/>
	<path class="st4" d="M263,178.4c-0.9,0.2-1.7,0.4-2.6,0.6c0.3,0.2,0.6,0.3,1,0.3C262,179.3,262.6,178.9,263,178.4z"/>
	<path class="st4" d="M256.7,199.8L256.7,199.8c-1,0-1.9,0.8-1.9,1.9l0,0l0,0c0,1,0.8,1.9,1.8,1.9c0,0,0,0,0,0l0,0
		c1,0,1.9-0.8,1.9-1.9l0,0l0,0C258.6,200.6,257.7,199.8,256.7,199.8C256.7,199.8,256.7,199.8,256.7,199.8z"/>
	<path class="st4" d="M261.4,191.7c-1,0-1.9,0.8-1.9,1.8s0.8,1.9,1.8,1.9s1.9-0.8,1.9-1.8c0,0,0,0,0,0
		C263.2,192.5,262.4,191.7,261.4,191.7C261.4,191.7,261.4,191.7,261.4,191.7z"/>
	<path class="st4" d="M256.7,215.9L256.7,215.9c-1,0-1.9,0.8-1.9,1.9l0,0l0,0c0,1,0.8,1.9,1.9,1.9c0,0,0,0,0,0l0,0
		c1,0,1.9-0.8,1.9-1.8c0,0,0,0,0,0l0,0C258.6,216.7,257.7,215.9,256.7,215.9C256.7,215.9,256.7,215.9,256.7,215.9z"/>
	<path class="st4" d="M261.4,207.8c-1,0-1.9,0.8-1.9,1.9c0,1,0.8,1.8,1.9,1.8c1,0,1.8-0.8,1.8-1.8S262.4,207.8,261.4,207.8
		C261.4,207.8,261.4,207.8,261.4,207.8z"/>
	<path class="st4" d="M256.7,232L256.7,232c-1,0-1.9,0.8-1.9,1.9l0,0l0,0c0,1,0.8,1.9,1.8,1.9c0,0,0,0,0,0l0,0c1,0,1.9-0.8,1.9-1.9
		l0,0l0,0C258.6,232.9,257.7,232,256.7,232C256.7,232,256.7,232,256.7,232z"/>
	<path class="st4" d="M261.4,224c-1,0-1.9,0.8-1.9,1.9c0,1,0.8,1.8,1.9,1.8c1,0,1.8-0.8,1.8-1.8S262.4,224,261.4,224
		C261.4,224,261.4,224,261.4,224z"/>
	<path class="st4" d="M256.7,248.2L256.7,248.2c-1,0-1.9,0.8-1.9,1.9l0,0l0,0c0,1,0.8,1.9,1.9,1.9c0,0,0,0,0,0l0,0
		c1,0,1.9-0.8,1.9-1.8c0,0,0,0,0,0l0,0C258.6,249,257.7,248.2,256.7,248.2C256.7,248.2,256.7,248.2,256.7,248.2z"/>
	<path class="st4" d="M261.4,240.1c-1,0-1.9,0.8-1.9,1.9s0.8,1.9,1.9,1.9c1,0,1.8-0.8,1.8-1.9S262.4,240.1,261.4,240.1
		C261.4,240.1,261.4,240.1,261.4,240.1z"/>
	<path class="st4" d="M256.7,264.3L256.7,264.3c-1,0-1.9,0.8-1.9,1.8c0,0,0,0,0,0l0,0c0,1,0.8,1.9,1.9,1.9c0,0,0,0,0,0l0,0
		c1,0,1.9-0.8,1.9-1.8c0,0,0,0,0,0l0,0C258.6,265.1,257.7,264.3,256.7,264.3z"/>
	<path class="st4" d="M261.4,256.3c-1,0-1.9,0.8-1.9,1.9s0.8,1.9,1.9,1.9c1,0,1.8-0.8,1.8-1.9S262.4,256.3,261.4,256.3
		C261.4,256.3,261.4,256.3,261.4,256.3z"/>
	<path class="st4" d="M256.7,280.5L256.7,280.5c-1,0-1.9,0.8-1.9,1.9l0,0l0,0c0,1,0.8,1.9,1.9,1.9c0,0,0,0,0,0l0,0
		c1,0,1.9-0.8,1.9-1.8c0,0,0,0,0,0l0,0C258.6,281.3,257.7,280.5,256.7,280.5C256.7,280.5,256.7,280.5,256.7,280.5z"/>
	<path class="st4" d="M261.4,272.4c-1,0-1.9,0.8-1.9,1.9c0,1,0.8,1.9,1.9,1.9c1,0,1.9-0.8,1.9-1.9c0,0,0,0,0,0
		C263.2,273.2,262.4,272.4,261.4,272.4C261.4,272.4,261.4,272.4,261.4,272.4z"/>
	<path class="st4" d="M256.7,296.6L256.7,296.6c-1,0-1.9,0.8-1.9,1.8c0,0,0,0,0,0l0,0c0,1,0.8,1.9,1.9,1.9c0,0,0,0,0,0l0,0
		c1,0,1.9-0.8,1.9-1.8c0,0,0,0,0,0l0,0C258.6,297.4,257.7,296.6,256.7,296.6z"/>
	<path class="st4" d="M261.4,288.5c-1,0-1.9,0.8-1.9,1.9s0.8,1.9,1.9,1.9c1,0,1.8-0.8,1.8-1.9S262.4,288.5,261.4,288.5
		C261.4,288.5,261.4,288.5,261.4,288.5z"/>
	<path class="st4" d="M261.4,304.7c-1,0-1.9,0.8-1.9,1.9c0,1,0.8,1.9,1.9,1.9c1,0,1.9-0.8,1.9-1.9c0,0,0,0,0,0
		C263.2,305.5,262.4,304.7,261.4,304.7C261.4,304.7,261.4,304.7,261.4,304.7z"/>
	<path class="st4" d="M247.4,183.6L247.4,183.6c-1,0-1.8,0.8-1.8,1.9l0,0l0,0c0,1,0.8,1.9,1.8,1.9c0,0,0,0,0,0l0,0
		c1,0,1.9-0.8,1.9-1.9l0,0l0,0C249.2,184.5,248.4,183.6,247.4,183.6C247.4,183.6,247.4,183.6,247.4,183.6z"/>
	<path class="st4" d="M247.4,199.8L247.4,199.8c-1,0-1.8,0.8-1.8,1.9l0,0l0,0c0,1,0.8,1.9,1.8,1.9c0,0,0,0,0,0l0,0
		c1,0,1.9-0.8,1.9-1.8c0,0,0,0,0,0l0,0C249.2,200.6,248.4,199.8,247.4,199.8C247.4,199.8,247.4,199.8,247.4,199.8z"/>
	<path class="st4" d="M252,191.7c-1,0-1.9,0.8-1.9,1.8s0.8,1.9,1.8,1.9s1.9-0.8,1.9-1.8c0,0,0,0,0,0
		C253.9,192.5,253.1,191.7,252,191.7z"/>
	<path class="st4" d="M247.4,215.9L247.4,215.9c-1,0-1.8,0.8-1.8,1.9l0,0l0,0c0,1,0.8,1.9,1.8,1.9c0,0,0,0,0,0l0,0
		c1,0,1.9-0.8,1.9-1.9l0,0l0,0C249.2,216.7,248.4,215.9,247.4,215.9C247.4,215.9,247.4,215.9,247.4,215.9z"/>
	<path class="st4" d="M252,207.8c-1,0-1.8,0.8-1.8,1.9c0,1,0.8,1.8,1.8,1.8s1.9-0.8,1.9-1.8S253.1,207.8,252,207.8
		C252,207.8,252,207.8,252,207.8z"/>
	<path class="st4" d="M247.4,232L247.4,232c-1,0-1.8,0.8-1.8,1.9l0,0l0,0c0,1,0.8,1.9,1.8,1.9c0,0,0,0,0,0l0,0c1,0,1.9-0.8,1.9-1.8
		c0,0,0,0,0,0l0,0C249.2,232.9,248.4,232,247.4,232C247.4,232,247.4,232,247.4,232z"/>
	<path class="st4" d="M252,224c-1,0-1.8,0.8-1.8,1.9c0,1,0.8,1.8,1.8,1.8s1.9-0.8,1.9-1.8S253.1,224,252,224
		C252,224,252,224,252,224z"/>
	<path class="st4" d="M247.4,248.2L247.4,248.2c-1,0-1.8,0.8-1.8,1.9l0,0l0,0c0,1,0.8,1.9,1.8,1.9c0,0,0,0,0,0l0,0
		c1,0,1.9-0.8,1.9-1.9l0,0l0,0C249.2,249,248.4,248.2,247.4,248.2C247.4,248.2,247.4,248.2,247.4,248.2z"/>
	<path class="st4" d="M252,240.1c-1,0-1.8,0.8-1.8,1.9c0,1,0.8,1.9,1.8,1.9s1.9-0.8,1.9-1.9S253.1,240.1,252,240.1
		C252,240.1,252,240.1,252,240.1z"/>
	<path class="st4" d="M247.4,264.3L247.4,264.3c-1,0-1.9,0.8-1.9,1.8c0,0,0,0,0,0l0,0c0,1,0.8,1.9,1.8,1.9c0,0,0,0,0,0l0,0
		c1,0,1.9-0.8,1.9-1.9l0,0l0,0C249.2,265.2,248.4,264.3,247.4,264.3C247.4,264.3,247.4,264.3,247.4,264.3z"/>
	<path class="st4" d="M252,256.3c-1,0-1.8,0.8-1.8,1.9c0,1,0.8,1.9,1.8,1.9s1.9-0.8,1.9-1.9S253.1,256.3,252,256.3
		C252,256.3,252,256.3,252,256.3z"/>
	<path class="st4" d="M247.4,280.5L247.4,280.5c-1,0-1.8,0.8-1.8,1.9l0,0l0,0c0,1,0.8,1.9,1.8,1.9c0,0,0,0,0,0l0,0
		c1,0,1.9-0.8,1.9-1.9l0,0l0,0C249.2,281.3,248.4,280.5,247.4,280.5C247.4,280.5,247.4,280.5,247.4,280.5z"/>
	<path class="st4" d="M252,272.4c-1,0-1.9,0.8-1.9,1.9c0,1,0.8,1.9,1.9,1.9c1,0,1.9-0.8,1.9-1.9c0,0,0,0,0,0
		C253.9,273.2,253.1,272.4,252,272.4C252,272.4,252,272.4,252,272.4z"/>
	<path class="st4" d="M247.4,296.6L247.4,296.6c-1,0-1.9,0.8-1.9,1.8c0,0,0,0,0,0l0,0c0,1,0.8,1.9,1.8,1.9c0,0,0,0,0,0l0,0
		c1,0,1.9-0.8,1.9-1.9l0,0l0,0C249.2,297.4,248.4,296.6,247.4,296.6C247.4,296.6,247.4,296.6,247.4,296.6z"/>
	<path class="st4" d="M252,288.5c-1,0-1.8,0.8-1.8,1.9c0,1,0.8,1.9,1.8,1.9s1.9-0.8,1.9-1.9S253.1,288.5,252,288.5
		C252,288.5,252,288.5,252,288.5z"/>
	<path class="st4" d="M252,304.7c-1,0-1.9,0.8-1.9,1.9c0,1,0.8,1.9,1.9,1.9c1,0,1.9-0.8,1.9-1.9c0,0,0,0,0,0
		C253.9,305.5,253.1,304.7,252,304.7C252,304.7,252,304.7,252,304.7z"/>
	<path class="st4" d="M238.1,199.8L238.1,199.8c-1,0-1.8,0.8-1.9,1.8l0,0c0,1,0.8,1.9,1.8,1.9c0,0,0,0,0,0l0,0c1,0,1.9-0.8,1.9-1.8
		c0,0,0,0,0,0l0,0C239.9,200.6,239.1,199.8,238.1,199.8z"/>
	<path class="st4" d="M242.7,191.7c-1,0-1.8,0.9-1.8,1.9s0.9,1.8,1.9,1.8c1,0,1.8-0.8,1.8-1.8C244.6,192.6,243.8,191.7,242.7,191.7
		C242.8,191.7,242.7,191.7,242.7,191.7z"/>
	<path class="st4" d="M238.2,187.3c0.5,0,0.9-0.3,1.2-0.6L238.2,187.3z"/>
	<path class="st4" d="M238.1,215.9L238.1,215.9c-1,0-1.9,0.8-1.9,1.9l0,0l0,0c0,1,0.8,1.9,1.8,1.9c0,0,0,0,0,0l0,0
		c1,0,1.8-0.8,1.8-1.9l0,0l0,0C239.9,216.7,239.1,215.9,238.1,215.9C238.1,215.9,238.1,215.9,238.1,215.9z"/>
	<path class="st4" d="M242.7,207.8c-1,0-1.9,0.8-1.9,1.9c0,1,0.8,1.8,1.9,1.8c1,0,1.8-0.8,1.8-1.8S243.7,207.8,242.7,207.8
		C242.7,207.8,242.7,207.8,242.7,207.8z"/>
	<path class="st4" d="M238.1,232L238.1,232c-1,0-1.9,0.8-1.9,1.9l0,0l0,0c0,1,0.8,1.9,1.8,1.9c0,0,0,0,0,0l0,0c1,0,1.9-0.8,1.9-1.8
		c0,0,0,0,0,0l0,0C239.9,232.9,239.1,232,238.1,232C238.1,232,238.1,232,238.1,232z"/>
	<circle class="st4" cx="242.7" cy="225.8" r="1.9"/>
	<path class="st4" d="M238.1,248.2L238.1,248.2c-1,0-1.9,0.8-1.9,1.9l0,0l0,0c0,1,0.8,1.9,1.8,1.9c0,0,0,0,0,0l0,0
		c1,0,1.8-0.8,1.8-1.9l0,0l0,0C239.9,249,239.1,248.2,238.1,248.2C238.1,248.2,238.1,248.2,238.1,248.2z"/>
	<path class="st4" d="M242.7,240.1c-1,0-1.9,0.8-1.9,1.9s0.8,1.9,1.9,1.9c1,0,1.8-0.8,1.8-1.9S243.7,240.1,242.7,240.1
		C242.7,240.1,242.7,240.1,242.7,240.1z"/>
	<path class="st4" d="M238.1,264.3L238.1,264.3c-1,0-1.9,0.8-1.9,1.8c0,0,0,0,0,0l0,0c0,1,0.8,1.9,1.8,1.9c0,0,0,0,0,0l0,0
		c1,0,1.8-0.8,1.8-1.9l0,0l0,0C239.9,265.2,239.1,264.3,238.1,264.3C238.1,264.3,238.1,264.3,238.1,264.3z"/>
	<path class="st4" d="M242.7,256.3c-1,0-1.9,0.8-1.9,1.9s0.8,1.9,1.9,1.9c1,0,1.8-0.8,1.8-1.9S243.7,256.3,242.7,256.3
		C242.7,256.3,242.7,256.3,242.7,256.3z"/>
	<path class="st4" d="M238.1,280.5L238.1,280.5c-1,0-1.9,0.8-1.9,1.9l0,0l0,0c0,1,0.8,1.9,1.8,1.9c0,0,0,0,0,0l0,0
		c1,0,1.8-0.8,1.8-1.9l0,0l0,0C239.9,281.3,239.1,280.5,238.1,280.5C238.1,280.5,238.1,280.5,238.1,280.5z"/>
	<path class="st4" d="M242.7,272.4c-1,0-1.9,0.8-1.9,1.9c0,1,0.8,1.9,1.8,1.9c1,0,1.9-0.8,1.9-1.9c0,0,0,0,0,0
		C244.6,273.2,243.7,272.4,242.7,272.4C242.7,272.4,242.7,272.4,242.7,272.4z"/>
	<path class="st4" d="M238.1,296.6L238.1,296.6c-1,0-1.9,0.8-1.9,1.8c0,0,0,0,0,0l0,0c0,1,0.8,1.9,1.8,1.9c0,0,0,0,0,0l0,0
		c1,0,1.8-0.8,1.8-1.9l0,0l0,0C239.9,297.4,239.1,296.6,238.1,296.6C238.1,296.6,238.1,296.6,238.1,296.6z"/>
	<circle class="st4" cx="242.7" cy="290.4" r="1.9"/>
	<circle class="st4" cx="242.7" cy="306.5" r="1.9"/>
	<path class="st4" d="M228.8,199.8L228.8,199.8c-1,0-1.8,0.8-1.9,1.8l0,0c0,1,0.8,1.9,1.9,1.9l0,0l0,0c1,0,1.9-0.8,1.9-1.8
		c0,0,0,0,0,0l0,0C230.6,200.6,229.8,199.8,228.8,199.8z"/>
	<path class="st4" d="M233.4,191.7c-1,0-1.9,0.8-1.9,1.9s0.8,1.9,1.9,1.9s1.9-0.8,1.9-1.9C235.3,192.5,234.4,191.7,233.4,191.7
		C233.4,191.7,233.4,191.7,233.4,191.7z"/>
	<path class="st4" d="M228.8,215.9L228.8,215.9c-1,0-1.9,0.8-1.9,1.8c0,0,0,0,0,0l0,0c0,1,0.8,1.8,1.9,1.8l0,0c1,0,1.8-0.8,1.9-1.8
		l0,0C230.6,216.7,229.8,215.9,228.8,215.9C228.8,215.9,228.8,215.9,228.8,215.9z"/>
	<path class="st4" d="M233.4,207.8c-1,0-1.8,0.8-1.8,1.9s0.8,1.8,1.9,1.8c1,0,1.8-0.8,1.8-1.8C235.3,208.7,234.4,207.8,233.4,207.8
		C233.4,207.8,233.4,207.8,233.4,207.8z"/>
	<path class="st4" d="M228.8,232L228.8,232c-1,0-1.9,0.8-1.9,1.8c0,0,0,0,0,0l0,0c0,1,0.8,1.9,1.9,1.9l0,0l0,0c1,0,1.9-0.8,1.9-1.8
		c0,0,0,0,0,0l0,0C230.6,232.9,229.8,232,228.8,232C228.8,232,228.8,232,228.8,232z"/>
	<path class="st4" d="M233.4,224c-1,0-1.8,0.8-1.8,1.9s0.8,1.8,1.9,1.8c1,0,1.8-0.8,1.8-1.8C235.3,224.8,234.4,224,233.4,224
		C233.4,224,233.4,224,233.4,224z"/>
	<path class="st4" d="M228.8,248.2L228.8,248.2c-1,0-1.9,0.8-1.9,1.8c0,0,0,0,0,0l0,0c0,1,0.8,1.9,1.8,1.9c0,0,0,0,0,0l0,0
		c1,0,1.9-0.8,1.9-1.8c0,0,0,0,0,0l0,0C230.6,249,229.8,248.2,228.8,248.2C228.8,248.2,228.8,248.2,228.8,248.2z"/>
	<path class="st4" d="M233.4,240.1c-1,0-1.8,0.8-1.8,1.9c0,1,0.8,1.8,1.9,1.8c1,0,1.8-0.8,1.8-1.8
		C235.3,240.9,234.4,240.1,233.4,240.1C233.4,240.1,233.4,240.1,233.4,240.1z"/>
	<path class="st4" d="M228.8,264.3L228.8,264.3c-1,0-1.9,0.8-1.9,1.9l0,0c0,1,0.8,1.9,1.8,1.9c0,0,0,0,0,0l0,0c1,0,1.9-0.8,1.9-1.8
		c0,0,0,0,0,0l0,0C230.6,265.2,229.8,264.3,228.8,264.3C228.8,264.3,228.8,264.3,228.8,264.3z"/>
	<path class="st4" d="M233.4,256.3c-1,0-1.8,0.8-1.8,1.9c0,1,0.8,1.8,1.9,1.8c1,0,1.8-0.8,1.8-1.8
		C235.3,257.1,234.4,256.3,233.4,256.3C233.4,256.3,233.4,256.3,233.4,256.3z"/>
	<path class="st4" d="M228.8,280.5L228.8,280.5c-1,0-1.9,0.8-1.9,1.8c0,0,0,0,0,0l0,0c0,1,0.8,1.9,1.8,1.9c0,0,0,0,0,0l0,0
		c1,0,1.9-0.8,1.9-1.8c0,0,0,0,0,0l0,0C230.6,281.3,229.8,280.5,228.8,280.5C228.8,280.5,228.8,280.5,228.8,280.5z"/>
	<path class="st4" d="M233.4,272.4c-1,0-1.9,0.8-1.9,1.9s0.8,1.9,1.9,1.9c1,0,1.9-0.8,1.9-1.9c0,0,0,0,0,0
		C235.3,273.2,234.4,272.4,233.4,272.4C233.4,272.4,233.4,272.4,233.4,272.4z"/>
	<path class="st4" d="M228.8,296.6L228.8,296.6c-1,0-1.9,0.8-1.9,1.9l0,0c0,1,0.8,1.9,1.8,1.9c0,0,0,0,0,0l0,0c1,0,1.9-0.8,1.9-1.8
		c0,0,0,0,0,0l0,0C230.6,297.4,229.8,296.6,228.8,296.6C228.8,296.6,228.8,296.6,228.8,296.6z"/>
	<path class="st4" d="M233.4,288.5c-1,0-1.8,0.8-1.8,1.9c0,1,0.8,1.8,1.9,1.8c1,0,1.8-0.8,1.8-1.8
		C235.3,289.4,234.4,288.5,233.4,288.5C233.4,288.5,233.4,288.5,233.4,288.5z"/>
	<path class="st4" d="M233.4,304.7c-1,0-1.9,0.8-1.9,1.9s0.8,1.9,1.9,1.9c1,0,1.9-0.8,1.9-1.9c0,0,0,0,0,0
		C235.3,305.5,234.4,304.7,233.4,304.7C233.4,304.7,233.4,304.7,233.4,304.7z"/>
	<path class="st4" d="M219.4,199.8L219.4,199.8c-1,0-1.8,0.8-1.8,1.8l0,0c0,1,0.8,1.9,1.8,1.9c0,0,0,0,0,0l0,0c1,0,1.8-0.8,1.8-1.9
		l0,0C221.3,200.6,220.4,199.8,219.4,199.8z"/>
	<path class="st4" d="M224.1,191.7c-1,0-1.9,0.8-1.9,1.9s0.8,1.9,1.9,1.9c1,0,1.9-0.8,1.9-1.8C226,192.6,225.1,191.7,224.1,191.7
		C224.1,191.7,224.1,191.7,224.1,191.7z"/>
	<path class="st4" d="M228.8,187.3c0.2,0,0.5,0,0.7-0.1l-0.7-0.1l-1-0.1C228.1,187.3,228.4,187.4,228.8,187.3z"/>
	<path class="st4" d="M219.4,215.9L219.4,215.9c-1,0-1.8,0.8-1.8,1.8l0,0c0,1,0.8,1.8,1.8,1.8l0,0c1,0,1.9-0.8,1.9-1.9l0,0l0,0
		C221.3,216.7,220.4,215.9,219.4,215.9z"/>
	<path class="st4" d="M224.1,207.8c-1,0-1.8,0.8-1.8,1.9c0,1,0.8,1.8,1.8,1.8s1.9-0.8,1.9-1.8S225.1,207.8,224.1,207.8
		C224.1,207.8,224.1,207.8,224.1,207.8z"/>
	<path class="st4" d="M219.4,232L219.4,232c-1,0-1.8,0.8-1.8,1.8l0,0c0,1,0.8,1.9,1.8,1.9c0,0,0,0,0,0l0,0c1,0,1.9-0.8,1.9-1.8
		c0,0,0,0,0,0l0,0C221.3,232.9,220.5,232,219.4,232C219.5,232,219.4,232,219.4,232z"/>
	<path class="st4" d="M224.1,224c-1,0-1.8,0.8-1.8,1.9c0,1,0.8,1.8,1.8,1.8s1.9-0.8,1.9-1.8S225.1,224,224.1,224
		C224.1,224,224.1,224,224.1,224z"/>
	<path class="st4" d="M219.4,248.2L219.4,248.2c-1,0-1.8,0.8-1.8,1.9l0,0c0,1,0.8,1.9,1.8,1.9c0,0,0,0,0,0l0,0c1,0,1.9-0.8,1.9-1.9
		l0,0l0,0C221.3,249,220.5,248.2,219.4,248.2C219.5,248.2,219.4,248.2,219.4,248.2z"/>
	<path class="st4" d="M224.1,240.1c-1,0-1.8,0.8-1.8,1.9c0,1,0.8,1.9,1.8,1.9s1.9-0.8,1.9-1.9S225.1,240.1,224.1,240.1
		C224.1,240.1,224.1,240.1,224.1,240.1z"/>
	<path class="st4" d="M219.4,264.3L219.4,264.3c-1,0-1.8,0.8-1.8,1.9l0,0c0,1,0.8,1.9,1.8,1.9c0,0,0,0,0,0l0,0c1,0,1.9-0.8,1.9-1.9
		l0,0l0,0C221.3,265.2,220.5,264.3,219.4,264.3C219.5,264.3,219.4,264.3,219.4,264.3z"/>
	<path class="st4" d="M224.1,256.3c-1,0-1.8,0.8-1.8,1.9c0,1,0.8,1.9,1.8,1.9s1.9-0.8,1.9-1.9S225.1,256.3,224.1,256.3
		C224.1,256.3,224.1,256.3,224.1,256.3z"/>
	<path class="st4" d="M219.4,280.5L219.4,280.5c-1,0-1.8,0.8-1.8,1.9l0,0c0,1,0.8,1.9,1.8,1.9c0,0,0,0,0,0l0,0c1,0,1.9-0.8,1.9-1.9
		l0,0l0,0C221.3,281.3,220.5,280.5,219.4,280.5C219.5,280.5,219.4,280.5,219.4,280.5z"/>
	<path class="st4" d="M224.1,272.4c-1,0-1.9,0.8-1.9,1.9c0,1,0.8,1.9,1.9,1.9c1,0,1.9-0.8,1.9-1.9c0,0,0,0,0,0
		C225.9,273.2,225.1,272.4,224.1,272.4C224.1,272.4,224.1,272.4,224.1,272.4z"/>
	<path class="st4" d="M219.4,296.6L219.4,296.6c-1,0-1.8,0.8-1.8,1.9l0,0c0,1,0.8,1.9,1.8,1.9c0,0,0,0,0,0l0,0c1,0,1.9-0.8,1.9-1.9
		l0,0l0,0C221.3,297.4,220.5,296.6,219.4,296.6C219.5,296.6,219.4,296.6,219.4,296.6z"/>
	<path class="st4" d="M224.1,288.5c-1,0-1.8,0.8-1.8,1.9c0,1,0.8,1.9,1.8,1.9s1.9-0.8,1.9-1.9S225.1,288.5,224.1,288.5
		C224.1,288.5,224.1,288.5,224.1,288.5z"/>
	<path class="st4" d="M224.1,304.7c-1,0-1.9,0.8-1.9,1.9c0,1,0.8,1.9,1.9,1.9c1,0,1.9-0.8,1.9-1.9c0,0,0,0,0,0
		C225.9,305.5,225.1,304.7,224.1,304.7C224.1,304.7,224.1,304.7,224.1,304.7z"/>
	<path class="st4" d="M210.1,199.8L210.1,199.8c-1,0-1.8,0.8-1.9,1.8l0,0c0,1,0.8,1.9,1.8,1.9c0,0,0,0,0,0l0,0c1,0,1.9-0.8,1.9-1.8
		c0,0,0,0,0,0l0,0C212,200.6,211.1,199.8,210.1,199.8z"/>
	<path class="st4" d="M214.8,191.7c-1,0-1.9,0.8-1.9,1.8s0.8,1.9,1.8,1.9c1,0,1.9-0.8,1.9-1.8C216.6,192.6,215.8,191.7,214.8,191.7
		C214.8,191.7,214.8,191.7,214.8,191.7z"/>
	<path class="st4" d="M219.4,187.3c0.5,0,1-0.2,1.4-0.6h-1.4H218C218.4,187.2,218.9,187.4,219.4,187.3L219.4,187.3z"/>
	<path class="st4" d="M210.1,215.9L210.1,215.9c-1,0-1.8,0.8-1.8,1.9l0,0l0,0c0,1,0.8,1.8,1.8,1.8l0,0c1,0,1.8-0.8,1.8-1.9l0,0l0,0
		C211.9,216.7,211.1,215.9,210.1,215.9z"/>
	<path class="st4" d="M214.8,207.8c-1,0-1.9,0.8-1.9,1.8s0.8,1.9,1.8,1.9c1,0,1.9-0.8,1.9-1.8c0,0,0,0,0,0
		C216.6,208.7,215.8,207.9,214.8,207.8z"/>
	<path class="st4" d="M210.1,232L210.1,232c-1,0-1.8,0.8-1.8,1.9l0,0l0,0c0,1,0.8,1.9,1.8,1.9c0,0,0,0,0,0l0,0c1,0,1.9-0.8,1.9-1.8
		c0,0,0,0,0,0l0,0C212,232.9,211.1,232,210.1,232C210.1,232,210.1,232,210.1,232z"/>
	<path class="st4" d="M214.8,224c-1,0-1.9,0.8-1.9,1.8s0.8,1.9,1.8,1.9c1,0,1.9-0.8,1.9-1.8c0,0,0,0,0,0
		C216.6,224.8,215.8,224,214.8,224z"/>
	<path class="st4" d="M210.1,248.2L210.1,248.2c-1,0-1.8,0.8-1.8,1.9l0,0l0,0c0,1,0.8,1.9,1.8,1.9c0,0,0,0,0,0l0,0
		c1,0,1.9-0.8,1.9-1.9l0,0l0,0C212,249,211.1,248.2,210.1,248.2C210.1,248.2,210.1,248.2,210.1,248.2z"/>
	<path class="st4" d="M214.8,240.1c-1,0-1.9,0.8-1.9,1.8c0,1,0.8,1.9,1.8,1.9c1,0,1.9-0.8,1.9-1.8c0,0,0,0,0,0
		C216.6,240.9,215.8,240.1,214.8,240.1z"/>
	<path class="st4" d="M210.1,264.3L210.1,264.3c-1,0-1.9,0.8-1.9,1.8c0,0,0,0,0,0l0,0c0,1,0.8,1.9,1.8,1.9c0,0,0,0,0,0l0,0
		c1,0,1.9-0.8,1.9-1.9l0,0l0,0C212,265.2,211.2,264.3,210.1,264.3C210.1,264.3,210.1,264.3,210.1,264.3z"/>
	<path class="st4" d="M214.8,256.3c-1,0-1.9,0.8-1.9,1.8c0,1,0.8,1.9,1.8,1.9c1,0,1.9-0.8,1.9-1.8c0,0,0,0,0,0
		C216.6,257.1,215.8,256.3,214.8,256.3z"/>
	<path class="st4" d="M210.1,280.5L210.1,280.5c-1,0-1.8,0.8-1.8,1.9l0,0l0,0c0,1,0.8,1.9,1.8,1.9c0,0,0,0,0,0l0,0
		c1,0,1.9-0.8,1.9-1.9l0,0l0,0C212,281.3,211.1,280.5,210.1,280.5C210.1,280.5,210.1,280.5,210.1,280.5z"/>
	<path class="st4" d="M214.8,272.4c-1,0-1.9,0.8-1.9,1.8s0.8,1.9,1.8,1.9c1,0,1.9-0.8,1.9-1.8c0,0,0,0,0,0
		C216.6,273.2,215.8,272.4,214.8,272.4z"/>
	<path class="st4" d="M210.1,296.6L210.1,296.6c-1,0-1.9,0.8-1.9,1.8c0,0,0,0,0,0l0,0c0,1,0.8,1.9,1.8,1.9c0,0,0,0,0,0l0,0
		c1,0,1.9-0.8,1.9-1.9l0,0l0,0C212,297.4,211.2,296.6,210.1,296.6C210.1,296.6,210.1,296.6,210.1,296.6z"/>
	<path class="st4" d="M214.8,288.5c-1,0-1.9,0.8-1.9,1.8c0,1,0.8,1.9,1.8,1.9c1,0,1.9-0.8,1.9-1.8c0,0,0,0,0,0
		C216.6,289.4,215.8,288.5,214.8,288.5z"/>
	<path class="st4" d="M214.8,304.7c-1,0-1.9,0.8-1.9,1.8s0.8,1.9,1.8,1.9c1,0,1.9-0.8,1.9-1.8c0,0,0,0,0,0
		C216.6,305.5,215.8,304.7,214.8,304.7z"/>
	<path class="st4" d="M200.8,199.8L200.8,199.8c-1,0-1.8,0.8-1.9,1.8l0,0c0,1,0.8,1.9,1.8,1.9c0,0,0,0,0,0l0,0c1,0,1.8-0.8,1.8-1.9
		l0,0C202.6,200.6,201.8,199.8,200.8,199.8z"/>
	<path class="st4" d="M205.5,191.7c-1,0-1.9,0.8-1.9,1.9s0.8,1.9,1.9,1.9c1,0,1.9-0.8,1.9-1.8C207.3,192.6,206.5,191.7,205.5,191.7
		C205.5,191.7,205.5,191.7,205.5,191.7z"/>
	<path class="st4" d="M210.1,187.3c0.5,0,0.9-0.2,1.3-0.5c-0.4,0-0.9,0-1.3,0.1L209,187C209.3,187.2,209.7,187.3,210.1,187.3
		L210.1,187.3z"/>
	<path class="st4" d="M200.8,215.9L200.8,215.9c-1,0-1.9,0.8-1.9,1.9l0,0l0,0c0,1,0.8,1.8,1.9,1.8l0,0c1,0,1.8-0.8,1.8-1.8l0,0
		C202.6,216.8,201.8,215.9,200.8,215.9z"/>
	<path class="st4" d="M205.5,207.8c-1,0-1.8,0.8-1.8,1.9c0,1,0.8,1.8,1.8,1.8s1.9-0.8,1.9-1.8S206.5,207.8,205.5,207.8
		C205.5,207.8,205.5,207.8,205.5,207.8z"/>
	<path class="st4" d="M200.8,232L200.8,232c-1,0-1.9,0.8-1.9,1.9l0,0l0,0c0,1,0.8,1.9,1.8,1.9c0,0,0,0,0,0l0,0c1,0,1.8-0.8,1.8-1.9
		l0,0C202.6,232.9,201.8,232.1,200.8,232z"/>
	<path class="st4" d="M205.5,224c-1,0-1.8,0.8-1.8,1.9c0,1,0.8,1.8,1.8,1.8s1.9-0.8,1.9-1.8S206.5,224,205.5,224
		C205.5,224,205.5,224,205.5,224z"/>
	<path class="st4" d="M200.8,248.2L200.8,248.2c-1,0-1.9,0.8-1.9,1.9l0,0l0,0c0,1,0.8,1.9,1.8,1.9c0,0,0,0,0,0l0,0
		c1,0,1.8-0.8,1.8-1.9l0,0C202.6,249,201.8,248.2,200.8,248.2z"/>
	<path class="st4" d="M205.5,240.1c-1,0-1.8,0.8-1.8,1.9c0,1,0.8,1.9,1.8,1.9s1.9-0.8,1.9-1.9S206.5,240.1,205.5,240.1
		C205.5,240.1,205.5,240.1,205.5,240.1z"/>
	<path class="st4" d="M200.8,264.3L200.8,264.3c-1,0-1.9,0.8-1.9,1.8c0,0,0,0,0,0l0,0c0,1,0.8,1.9,1.8,1.9c0,0,0,0,0,0l0,0
		c1,0,1.8-0.8,1.8-1.9l0,0C202.6,265.2,201.8,264.3,200.8,264.3z"/>
	<path class="st4" d="M205.5,256.3c-1,0-1.8,0.8-1.8,1.9c0,1,0.8,1.9,1.8,1.9s1.9-0.8,1.9-1.9S206.5,256.3,205.5,256.3
		C205.5,256.3,205.5,256.3,205.5,256.3z"/>
	<path class="st4" d="M200.8,280.5L200.8,280.5c-1,0-1.9,0.8-1.9,1.9l0,0l0,0c0,1,0.8,1.9,1.8,1.9c0,0,0,0,0,0l0,0
		c1,0,1.8-0.8,1.8-1.9l0,0C202.6,281.3,201.8,280.5,200.8,280.5z"/>
	<path class="st4" d="M205.5,272.4c-1,0-1.9,0.8-1.9,1.9c0,1,0.8,1.9,1.9,1.9c1,0,1.9-0.8,1.9-1.9c0,0,0,0,0,0
		C207.3,273.2,206.5,272.4,205.5,272.4C205.5,272.4,205.5,272.4,205.5,272.4z"/>
	<path class="st4" d="M200.8,296.6L200.8,296.6c-1,0-1.9,0.8-1.9,1.8c0,0,0,0,0,0l0,0v0c0.6,0.6,1.2,1.2,1.9,1.8l0,0
		c1,0,1.8-0.8,1.8-1.8l0,0C202.6,297.4,201.8,296.6,200.8,296.6z"/>
	<path class="st4" d="M205.5,288.5c-1,0-1.8,0.8-1.8,1.9c0,1,0.8,1.9,1.8,1.9s1.9-0.8,1.9-1.9S206.5,288.5,205.5,288.5
		C205.5,288.5,205.5,288.5,205.5,288.5z"/>
	<path class="st4" d="M191.5,199.8L191.5,199.8c-1,0-1.8,0.8-1.9,1.8l0,0c0,1,0.8,1.9,1.8,1.9c0,0,0,0,0,0l0,0c1,0,1.9-0.8,1.9-1.8
		c0,0,0,0,0,0l0,0C193.3,200.6,192.5,199.8,191.5,199.8z"/>
	<path class="st4" d="M196.1,191.7c-1,0-1.9,0.8-1.9,1.9s0.8,1.9,1.9,1.9c1,0,1.9-0.8,1.9-1.8C198,192.6,197.2,191.7,196.1,191.7
		C196.2,191.7,196.2,191.7,196.1,191.7z"/>
	<path class="st4" d="M191.5,215.9L191.5,215.9c-1,0-1.9,0.8-1.9,1.8c0,0,0,0,0,0l0,0c0,1,0.9,1.8,1.9,1.8l0,0c1,0,1.9-0.8,1.9-1.8
		c0,0,0,0,0,0l0,0C193.3,216.7,192.5,215.9,191.5,215.9z"/>
	<path class="st4" d="M196.1,207.8c-1,0-1.9,0.8-1.9,1.9c0,1,0.8,1.8,1.9,1.8c1,0,1.8-0.8,1.8-1.8S197.2,207.8,196.1,207.8
		L196.1,207.8z"/>
	<path class="st4" d="M191.5,232L191.5,232c-1,0-1.9,0.8-1.9,1.8c0,0,0,0,0,0l0,0c0,1,0.8,1.9,1.8,1.9c0,0,0,0,0,0l0,0
		c1,0,1.9-0.8,1.9-1.9l0,0l0,0C193.3,232.9,192.5,232.1,191.5,232z"/>
	<circle class="st4" cx="196.1" cy="225.8" r="1.9"/>
	<path class="st4" d="M191.5,248.2L191.5,248.2c-1,0-1.9,0.8-1.9,1.8c0,0,0,0,0,0l0,0c0,1,0.8,1.9,1.8,1.9l0,0l0,0
		c1,0,1.9-0.8,1.9-1.8c0,0,0,0,0,0l0,0C193.3,249,192.5,248.2,191.5,248.2z"/>
	<path class="st4" d="M196.1,240.1c-1,0-1.9,0.8-1.9,1.9s0.8,1.9,1.9,1.9c1,0,1.8-0.8,1.8-1.9S197.2,240.1,196.1,240.1L196.1,240.1z
		"/>
	<path class="st4" d="M191.5,264.3L191.5,264.3c-1,0-1.9,0.8-1.9,1.8c0,0,0,0,0,0l0,0c0,1,0.8,1.9,1.8,1.9l0,0l0,0
		c1,0,1.9-0.8,1.9-1.8c0,0,0,0,0,0l0,0C193.3,265.2,192.5,264.3,191.5,264.3z"/>
	<path class="st4" d="M196.1,256.3c-1,0-1.9,0.8-1.9,1.9s0.8,1.9,1.9,1.9c1,0,1.8-0.8,1.8-1.9S197.2,256.3,196.1,256.3L196.1,256.3z
		"/>
	<path class="st4" d="M191.5,280.5L191.5,280.5c-1,0-1.9,0.8-1.9,1.8c0,0,0,0,0,0l0,0c0,1,0.8,1.9,1.8,1.9l0,0l0,0
		c1,0,1.9-0.8,1.9-1.8c0,0,0,0,0,0l0,0C193.3,281.3,192.5,280.5,191.5,280.5z"/>
	<path class="st4" d="M196.1,272.4c-1,0-1.9,0.8-1.9,1.9c0,1,0.8,1.9,1.8,1.9c1,0,1.9-0.8,1.9-1.9c0,0,0,0,0,0
		C198,273.2,197.2,272.4,196.1,272.4L196.1,272.4z"/>
	<circle class="st4" cx="196.1" cy="290.4" r="1.9"/>
	<path class="st4" d="M182.2,199.8L182.2,199.8c-1,0-1.8,0.8-1.9,1.8l0,0c0,1,0.8,1.9,1.8,1.9c0,0,0,0,0,0l0,0c1,0,1.9-0.8,1.9-1.8
		c0,0,0,0,0,0l0,0C184,200.6,183.2,199.8,182.2,199.8z"/>
	<path class="st4" d="M186.8,191.7c-1,0-1.9,0.8-1.9,1.9s0.8,1.9,1.9,1.9c1,0,1.9-0.8,1.9-1.8C188.7,192.6,187.9,191.7,186.8,191.7
		C186.8,191.7,186.8,191.7,186.8,191.7z"/>
	<path class="st4" d="M182.2,215.9L182.2,215.9c-1,0-1.8,0.8-1.8,1.9l0,0l0,0c0,1,0.8,1.8,1.8,1.8l0,0c1,0,1.9-0.8,1.9-1.9l0,0l0,0
		C184,216.7,183.2,215.9,182.2,215.9z"/>
	<path class="st4" d="M186.8,207.8c-1,0-1.9,0.8-1.9,1.9c0,1,0.8,1.8,1.9,1.8c1,0,1.8-0.8,1.8-1.8
		C188.7,208.7,187.9,207.8,186.8,207.8L186.8,207.8z"/>
	<path class="st4" d="M182.2,232L182.2,232c-1,0-1.8,0.8-1.8,1.9l0,0l0,0c0,1,0.8,1.9,1.8,1.9c0,0,0,0,0,0l0,0c1,0,1.9-0.8,1.9-1.8
		c0,0,0,0,0,0l0,0C184,232.9,183.2,232,182.2,232L182.2,232z"/>
	<path class="st4" d="M186.8,224c-1,0-1.9,0.8-1.9,1.9c0,1,0.8,1.8,1.9,1.8c1,0,1.8-0.8,1.8-1.8C188.7,224.8,187.9,224,186.8,224
		L186.8,224z"/>
	<path class="st4" d="M182.2,248.2L182.2,248.2c-1,0-1.8,0.8-1.8,1.9l0,0l0,0c0,1,0.8,1.9,1.8,1.9l0,0l0,0c1,0,1.9-0.8,1.9-1.9l0,0
		l0,0C184,249,183.2,248.2,182.2,248.2L182.2,248.2z"/>
	<path class="st4" d="M186.8,240.1c-1,0-1.9,0.8-1.9,1.9s0.8,1.9,1.9,1.9c1,0,1.8-0.8,1.8-1.9C188.7,240.9,187.9,240.1,186.8,240.1
		L186.8,240.1z"/>
	<path class="st4" d="M182.2,264.3L182.2,264.3c-1,0-1.9,0.8-1.9,1.8c0,0,0,0,0,0l0,0c0,1,0.8,1.9,1.8,1.9l0,0l0,0
		c1,0,1.9-0.8,1.9-1.9l0,0l0,0C184,265.2,183.2,264.3,182.2,264.3C182.2,264.3,182.2,264.3,182.2,264.3z"/>
	<path class="st4" d="M186.8,256.3c-1,0-1.9,0.8-1.9,1.9s0.8,1.9,1.9,1.9c1,0,1.8-0.8,1.8-1.9C188.7,257.1,187.9,256.3,186.8,256.3
		L186.8,256.3z"/>
	<path class="st4" d="M182.2,280.5L182.2,280.5c-1,0-1.8,0.8-1.8,1.9l0,0l0,0c0,1,0.8,1.9,1.8,1.9l0,0l0,0c1,0,1.9-0.8,1.9-1.9l0,0
		l0,0C184,281.3,183.2,280.5,182.2,280.5L182.2,280.5z"/>
	<path class="st4" d="M186.8,272.4c-1,0-1.9,0.8-1.9,1.9c0,1,0.8,1.9,1.8,1.9c1,0,1.9-0.8,1.9-1.9c0,0,0,0,0,0
		C188.7,273.2,187.9,272.4,186.8,272.4L186.8,272.4z"/>
	<path class="st4" d="M172.9,199.8L172.9,199.8c-1,0-1.8,0.8-1.9,1.8l0,0c0,1,0.8,1.9,1.8,1.9c0,0,0,0,0,0l0,0c1,0,1.9-0.8,1.9-1.8
		c0,0,0,0,0,0l0,0C174.7,200.6,173.9,199.8,172.9,199.8z"/>
	<path class="st4" d="M179.3,194c-0.8,0.4-1.6,0.9-2.4,1.3c0.2,0.1,0.4,0.1,0.6,0.1C178.4,195.4,179.1,194.8,179.3,194z"/>
	<path class="st4" d="M172.9,215.9L172.9,215.9c-1,0-1.9,0.8-1.9,1.9l0,0l0,0c0,1,0.8,1.8,1.9,1.8l0,0c1,0,1.8-0.8,1.8-1.9l0,0l0,0
		C174.7,216.7,173.9,215.9,172.9,215.9z"/>
	<path class="st4" d="M177.5,207.8c-1,0-1.8,0.8-1.8,1.9c0,1,0.8,1.8,1.8,1.8s1.9-0.8,1.9-1.8S178.5,207.8,177.5,207.8L177.5,207.8z
		"/>
	<path class="st4" d="M172.9,232L172.9,232c-1,0-1.9,0.8-1.9,1.9l0,0l0,0c0,1,0.8,1.9,1.8,1.9c0,0,0,0,0,0l0,0c1,0,1.9-0.8,1.9-1.8
		c0,0,0,0,0,0l0,0C174.7,232.9,173.9,232,172.9,232L172.9,232z"/>
	<path class="st4" d="M177.5,224c-1,0-1.8,0.8-1.8,1.9c0,1,0.8,1.8,1.8,1.8s1.9-0.8,1.9-1.8S178.5,224,177.5,224L177.5,224z"/>
	<path class="st4" d="M172.9,248.2L172.9,248.2c-1,0-1.9,0.8-1.9,1.9l0,0l0,0c0,1,0.8,1.9,1.8,1.9h0l0,0c1,0,1.8-0.8,1.8-1.9l0,0
		l0,0C174.7,249,173.9,248.2,172.9,248.2L172.9,248.2z"/>
	<path class="st4" d="M177.5,240.1c-1,0-1.8,0.8-1.8,1.9s0.8,1.9,1.8,1.9s1.9-0.8,1.9-1.9S178.5,240.1,177.5,240.1L177.5,240.1z"/>
	<path class="st4" d="M172.9,264.3L172.9,264.3c-1,0-1.9,0.8-1.9,1.8c0,0,0,0,0,0l0,0c0,1,0.8,1.9,1.8,1.9h0l0,0
		c1,0,1.8-0.8,1.8-1.9l0,0l0,0C174.7,265.2,173.9,264.3,172.9,264.3C172.9,264.3,172.9,264.3,172.9,264.3z"/>
	<path class="st4" d="M177.5,256.3c-1,0-1.8,0.8-1.8,1.9s0.8,1.9,1.8,1.9s1.9-0.8,1.9-1.9S178.5,256.3,177.5,256.3L177.5,256.3z"/>
	<path class="st4" d="M172.9,280.5L172.9,280.5c-1,0-1.9,0.8-1.9,1.9l0,0l0,0c0,0.2,0,0.5,0.1,0.7l1.7,0.6l1,0.3
		c0.5-0.3,0.9-0.9,0.9-1.6l0,0C174.7,281.3,173.9,280.5,172.9,280.5C172.9,280.5,172.9,280.5,172.9,280.5z"/>
	<path class="st4" d="M177.5,272.4c-1,0-1.9,0.8-1.9,1.9c0,1,0.8,1.9,1.9,1.9c1,0,1.9-0.8,1.9-1.9c0,0,0,0,0,0
		C179.4,273.2,178.5,272.4,177.5,272.4L177.5,272.4z"/>
	<path class="st4" d="M163.5,215.9L163.5,215.9c-1,0-1.9,0.8-1.9,1.8c0,0,0,0,0,0l0,0c0,1,0.8,1.8,1.9,1.8l0,0c1,0,1.9-0.8,1.9-1.9
		l0,0l0,0C165.4,216.7,164.6,215.9,163.5,215.9z"/>
	<path class="st4" d="M168.2,207.8c-1,0-1.8,0.8-1.8,1.9s0.8,1.8,1.9,1.8c1,0,1.8-0.8,1.8-1.8C170.1,208.7,169.2,207.8,168.2,207.8
		C168.2,207.8,168.2,207.8,168.2,207.8z"/>
	<path class="st4" d="M163.5,232L163.5,232c-1,0-1.9,0.8-1.9,1.8c0,0,0,0,0,0l0,0c0,1,0.8,1.9,1.9,1.9c0,0,0,0,0,0l0,0
		c1,0,1.9-0.8,1.9-1.8c0,0,0,0,0,0l0,0C165.4,232.9,164.6,232,163.5,232C163.5,232,163.5,232,163.5,232z"/>
	<path class="st4" d="M168.2,224c-1,0-1.8,0.8-1.8,1.9s0.8,1.8,1.9,1.8c1,0,1.8-0.8,1.8-1.8C170.1,224.8,169.2,224,168.2,224
		C168.2,224,168.2,224,168.2,224z"/>
	<path class="st4" d="M163.5,248.2L163.5,248.2c-1,0-1.9,0.8-1.9,1.8c0,0,0,0,0,0l0,0c0,1,0.8,1.9,1.8,1.9c0,0,0,0,0,0l0,0
		c1,0,1.9-0.8,1.9-1.9l0,0l0,0C165.4,249,164.6,248.2,163.5,248.2C163.5,248.2,163.5,248.2,163.5,248.2z"/>
	<path class="st4" d="M168.2,240.1c-1,0-1.8,0.8-1.8,1.9c0,1,0.8,1.8,1.9,1.8c1,0,1.8-0.8,1.8-1.8
		C170.1,240.9,169.2,240.1,168.2,240.1C168.2,240.1,168.2,240.1,168.2,240.1z"/>
	<path class="st4" d="M163.5,264.3L163.5,264.3c-1,0-1.9,0.8-1.9,1.9l0,0c0,1,0.8,1.9,1.8,1.9c0,0,0,0,0,0l0,0c1,0,1.9-0.8,1.9-1.9
		l0,0l0,0C165.4,265.2,164.6,264.3,163.5,264.3C163.5,264.3,163.5,264.3,163.5,264.3z"/>
	<path class="st4" d="M168.2,256.3c-1,0-1.8,0.8-1.8,1.9c0,1,0.8,1.8,1.9,1.8c1,0,1.8-0.8,1.8-1.8
		C170.1,257.1,169.2,256.3,168.2,256.3C168.2,256.3,168.2,256.3,168.2,256.3z"/>
	<path class="st4" d="M168.2,272.4c-1,0-1.9,0.8-1.9,1.9s0.8,1.9,1.9,1.9c1,0,1.9-0.8,1.9-1.9c0,0,0,0,0,0
		C170.1,273.2,169.2,272.4,168.2,272.4C168.2,272.4,168.2,272.4,168.2,272.4z"/>
	<path class="st4" d="M154.2,215.9L154.2,215.9c-1,0-1.9,0.8-1.9,1.9l0,0l0,0c0,1,0.8,1.8,1.9,1.8l0,0c1,0,1.8-0.8,1.8-1.9l0,0l0,0
		C156.1,216.7,155.2,215.9,154.2,215.9z"/>
	<path class="st4" d="M160.2,211h-2.6C158.3,211.7,159.5,211.7,160.2,211L160.2,211z"/>
	<path class="st4" d="M154.2,232L154.2,232c-1,0-1.9,0.8-1.9,1.9l0,0l0,0c0,1,0.8,1.9,1.8,1.9c0,0,0,0,0,0l0,0c1,0,1.9-0.8,1.9-1.8
		c0,0,0,0,0,0l0,0C156.1,232.9,155.2,232,154.2,232C154.2,232,154.2,232,154.2,232z"/>
	<path class="st4" d="M158.9,224c-1,0-1.9,0.8-1.9,1.9c0,1,0.8,1.8,1.9,1.8c1,0,1.8-0.8,1.8-1.8S159.9,224,158.9,224
		C158.9,224,158.9,224,158.9,224z"/>
	<path class="st4" d="M154.2,248.2L154.2,248.2c-1,0-1.9,0.8-1.9,1.9l0,0l0,0c0,1,0.8,1.9,1.8,1.9c0,0,0,0,0,0l0,0
		c1,0,1.8-0.8,1.8-1.9l0,0l0,0C156.1,249,155.2,248.2,154.2,248.2C154.2,248.2,154.2,248.2,154.2,248.2z"/>
	<path class="st4" d="M158.9,240.1c-1,0-1.9,0.8-1.9,1.9s0.8,1.9,1.9,1.9c1,0,1.8-0.8,1.8-1.9S159.9,240.1,158.9,240.1
		C158.9,240.1,158.9,240.1,158.9,240.1z"/>
	<path class="st4" d="M154.2,264.3L154.2,264.3c-1,0-1.9,0.8-1.9,1.8c0,0,0,0,0,0l0,0c0,1,0.8,1.9,1.8,1.9c0,0,0,0,0,0l0,0
		c1,0,1.8-0.8,1.8-1.9l0,0l0,0C156.1,265.2,155.3,264.3,154.2,264.3C154.2,264.3,154.2,264.3,154.2,264.3z"/>
	<path class="st4" d="M158.9,256.3c-1,0-1.9,0.8-1.9,1.9s0.8,1.9,1.9,1.9c1,0,1.8-0.8,1.8-1.9S159.9,256.3,158.9,256.3
		C158.9,256.3,158.9,256.3,158.9,256.3z"/>
	<path class="st4" d="M158.9,272.4c-1,0-1.9,0.8-1.9,1.9c0,1,0.8,1.9,1.8,1.9c1,0,1.9-0.8,1.9-1.9c0,0,0,0,0,0
		C160.7,273.2,159.9,272.4,158.9,272.4C158.9,272.4,158.9,272.4,158.9,272.4z"/>
	<path class="st4" d="M144.9,215.9L144.9,215.9c-1,0-1.9,0.8-1.9,1.9l0,0l0,0c0,1,0.8,1.8,1.8,1.8l0,0c1,0,1.9-0.8,1.9-1.9l0,0l0,0
		C146.7,216.7,145.9,215.9,144.9,215.9z"/>
	<path class="st4" d="M150.9,211h-2.6C149,211.7,150.1,211.7,150.9,211z"/>
	<path class="st4" d="M144.9,232L144.9,232c-1,0-1.9,0.8-1.9,1.9l0,0l0,0c0,1,0.8,1.9,1.8,1.9c0,0,0,0,0,0l0,0c1,0,1.9-0.8,1.9-1.8
		c0,0,0,0,0,0l0,0C146.8,232.9,145.9,232,144.9,232C144.9,232,144.9,232,144.9,232z"/>
	<circle class="st4" cx="149.6" cy="225.8" r="1.9"/>
	<path class="st4" d="M144.9,248.2L144.9,248.2c-1,0-1.9,0.8-1.9,1.9l0,0l0,0c0,1,0.8,1.9,1.8,1.9c0,0,0,0,0,0l0,0
		c1,0,1.8-0.8,1.8-1.9l0,0l0,0C146.8,249,145.9,248.2,144.9,248.2C144.9,248.2,144.9,248.2,144.9,248.2z"/>
	<path class="st4" d="M149.6,240.1c-1,0-1.9,0.8-1.9,1.9s0.8,1.9,1.9,1.9s1.8-0.8,1.8-1.9C151.5,240.9,150.6,240.1,149.6,240.1
		C149.6,240.1,149.6,240.1,149.6,240.1z"/>
	<path class="st4" d="M149.6,256.3c-1,0-1.9,0.8-1.9,1.9s0.8,1.9,1.9,1.9s1.8-0.8,1.8-1.9C151.5,257.1,150.6,256.3,149.6,256.3
		C149.6,256.3,149.6,256.3,149.6,256.3z"/>
</g>
<g id="Layer_1">
	<path class="st5" d="M383,194.2c-2.3-4.9-6.9-9.3-13.4-13l0,0c-8.2-4.7-19.4-8.4-32.6-10.9c-4.5-7.9-11-14.4-18.9-18.8
		c-7-3.9-14.6-6.5-22.5-7.7c-19.4-3-40.2,1.4-58.6,11c-24.3-3-46.2-0.8-60.3,7.4l0,0c-14.1,8.2-17.9,20.9-12.6,34.9
		c-16.6,10.7-24.1,22.8-18.8,34c2.3,4.9,6.9,9.3,13.3,13c8.2,4.7,19.4,8.4,32.6,10.9c4.5,7.9,11,14.4,18.9,18.9
		c7,3.9,14.6,6.5,22.5,7.7c19.4,3,40.2-1.4,58.6-11c24.3,3,46.2,0.8,60.3-7.4l0,0c14.1-8.2,17.9-20.9,12.6-35
		C380.7,217.5,388.2,205.4,383,194.2z"/>
	<path d="M384.5,157.6L384.5,157.6c-0.6,0-1,0.4-1,1l0,0c0,6.5-4.3,13.5-12.4,20.3c-0.2,0-0.4,0.1-0.6,0.2c-2.3,1.9-4.8,3.7-7.3,5.3
		c-0.3,0.2-0.5,0.5-0.5,0.8l-0.1,43.2c0,0.4,0.2,0.7,0.5,0.9c0.1,0.1,0.2,0.1,0.3,0.1c0.1,0.1,0.3,0.1,0.5,0.1
		c0.2,0,0.4-0.1,0.5-0.2c13.7-8.8,20.9-18.4,20.9-27.6l0.1-43.2C385.5,158,385.1,157.6,384.5,157.6L384.5,157.6z"/>
	<path class="st5" d="M364.1,184.8c-10.6,6.8-24.8,13.1-41.8,18.1c-8.8,9.9-19.4,18.1-31.1,24.3c24.3,3,46.2,0.8,60.3-7.4l0,0
		C365.5,211.5,369.4,198.8,364.1,184.8z"/>
	<path d="M310.9,229.4c-6.7,0-13.3-0.5-19.9-1.3l-3.2-0.4l2.8-1.5c11.7-6.1,22.1-14.2,30.9-24l0.2-0.2l0.3-0.1
		c16.6-4.9,30.9-11.2,41.5-18l1-0.7l0.4,1.2c5.7,15.1,1,28-13.1,36.2C341.9,226.4,327.7,229.4,310.9,229.4z M294.4,226.5
		c23.7,2.5,43.7-0.2,56.5-7.7c12.9-7.5,17.2-19,12.6-32.6c-10.6,6.6-24.6,12.7-40.7,17.5C314.6,212.9,305,220.6,294.4,226.5z"/>
	<path class="st5" d="M164,153.7c10.6-6.8,24.8-13.1,41.8-18.1c8.8-9.9,19.4-18.1,31.2-24.3c-24.3-3-46.2-0.8-60.3,7.4l0,0
		C162.6,127,158.8,139.7,164,153.7z"/>
	<path d="M163.5,155.3l-0.4-1.2c-5.6-15.1-1-28,13.1-36.1c13.8-8,35.4-10.7,60.9-7.6l3.2,0.4l-2.8,1.5c-11.7,6.1-22.1,14.2-30.9,24
		l-0.2,0.2l-0.3,0.1c-16.6,4.9-30.9,11.2-41.5,18L163.5,155.3z M217.1,111.1c-16.4,0-30.2,2.9-40,8.6c-12.8,7.4-17.2,19-12.6,32.5
		c10.6-6.6,24.6-12.6,40.7-17.5c8.2-9.1,17.8-16.8,28.4-22.7C228.2,111.4,222.7,111.1,217.1,111.1z"/>
	<path class="st5" d="M343.3,156.9c10.4,9.3,17.4,18.8,20.8,27.8c16.5-10.7,24.1-22.8,18.8-34c-2.3-4.9-6.9-9.3-13.4-13l0,0
		c-8.2-4.7-19.4-8.4-32.6-10.9C342,136,344.2,146.5,343.3,156.9z"/>
	<path d="M363.6,186.3l-0.4-1.2c-3.3-8.9-10.4-18.4-20.5-27.4l-0.4-0.3v-0.5c0.9-10.2-1.2-20.5-6.2-29.5l-1.1-1.9l2.1,0.4
		c13.6,2.5,24.7,6.2,32.9,11c6.8,3.9,11.4,8.4,13.8,13.5c5.3,11.3-1.5,23.8-19.2,35.2L363.6,186.3z M344.4,156.5
		c9.7,8.8,16.7,18,20.2,26.7c16-10.6,22.1-21.9,17.4-32c-2.2-4.6-6.5-8.9-12.9-12.6c-7.6-4.4-17.8-7.9-30.2-10.4
		C343.2,137,345.1,146.8,344.4,156.5z"/>
	<path class="st5" d="M184.8,181.6c-10.4-9.3-17.4-18.8-20.8-27.8c-16.6,10.7-24.1,22.8-18.8,34c2.3,4.9,6.9,9.3,13.3,13
		c8.2,4.7,19.4,8.4,32.6,10.9C186,202.5,183.8,192,184.8,181.6z"/>
	<path d="M193.1,213l-2.1-0.4c-13.6-2.6-24.7-6.3-32.9-11c-6.8-3.9-11.4-8.4-13.7-13.4c-5.3-11.3,1.5-23.8,19.2-35.2l1.1-0.7
		l0.4,1.2c3.3,8.9,10.4,18.4,20.5,27.4l0.4,0.3v0.5c-0.9,10.2,1.2,20.5,6.2,29.5L193.1,213z M163.5,155.3
		c-16,10.6-22.2,22-17.5,32.1c2.2,4.6,6.5,8.9,12.9,12.6c7.6,4.4,17.8,7.9,30.2,10.4c-4.4-8.7-6.3-18.5-5.5-28.3
		C174.1,173.2,167.1,164,163.5,155.3z"/>
	<path class="st5" d="M322.3,202.9c17-5.1,31.2-11.3,41.8-18.1c-3.4-9-10.4-18.5-20.8-27.8c-0.7,8.2-2.9,16.2-6.4,23.6
		C333.2,188.7,328.2,196.2,322.3,202.9z"/>
	<path d="M319.2,204.8l2.3-2.6c5.9-6.6,10.8-14,14.5-22.1c3.4-7.3,5.6-15.2,6.3-23.3l0.2-2l1.5,1.3c10.3,9.2,17.6,19,21.1,28.2
		l0.3,0.8l-0.7,0.4c-10.8,6.9-25.3,13.2-42,18.2L319.2,204.8z M344.1,159c-0.9,7.6-3,15-6.2,21.9c-3.3,7.2-7.5,13.9-12.6,19.9
		c14.9-4.7,27.8-10.4,37.6-16.6C359.6,176.1,353.1,167.4,344.1,159z"/>
	<path class="st5" d="M184.8,181.6c0.7-8.2,2.9-16.2,6.3-23.6c3.8-8.1,8.7-15.6,14.6-22.3c-16.9,5.1-31.2,11.3-41.8,18.1
		C167.4,162.7,174.4,172.3,184.8,181.6z"/>
	<path d="M185.6,183.7l-1.5-1.4c-10.3-9.2-17.6-19-21-28.2l-0.3-0.8l0.7-0.4c10.8-6.9,25.3-13.2,42-18.2l3.3-1l-2.3,2.6
		c-5.9,6.6-10.8,14.1-14.5,22.1c-3.4,7.3-5.5,15.2-6.2,23.3L185.6,183.7z M165.3,154.1c3.3,8.2,9.7,17,18.8,25.3
		c0.9-7.6,3-15,6.2-21.9c3.3-7.2,7.5-13.9,12.6-19.9C188,142.3,175.1,147.9,165.3,154.1z"/>
	<path class="st5" d="M236.9,111.4c16.4,2.1,32.6,6.1,48.1,11.9c19.1-0.5,36.8,0.7,51.9,3.6c-4.5-7.9-11-14.4-18.9-18.8l0,0
		c-7-3.9-14.6-6.5-22.5-7.7C276.2,97.4,255.4,101.8,236.9,111.4z"/>
	<path d="M338.9,128.3l-2.1-0.4c-15.2-2.8-33-4.1-51.7-3.5h-0.2l-0.2-0.1c-15.4-5.8-31.5-9.8-47.9-11.9l-3.2-0.4l2.8-1.5
		c19.3-10.1,40.3-14,59.2-11.1c8,1.2,15.8,3.8,22.9,7.8c8,4.5,14.7,11.2,19.3,19.2L338.9,128.3z M293.5,122.2
		c13.9-0.1,27.8,1,41.5,3.3c-4.4-6.9-10.3-12.6-17.4-16.6c-6.9-3.9-14.4-6.4-22.2-7.6c-17.5-2.7-37,0.6-55.1,9.5
		c15.3,2.2,30.4,6.1,44.9,11.5C288,122.2,290.7,122.2,293.5,122.2L293.5,122.2z"/>
	<path class="st5" d="M191.1,211.6c4.5,7.9,11,14.4,18.9,18.9c7,3.9,14.6,6.5,22.5,7.7c19.4,3,40.2-1.4,58.6-11
		c-16.4-2.1-32.6-6.2-48.1-12C224,215.7,206.2,214.5,191.1,211.6z"/>
	<path d="M244.8,240.1c-4.2,0-8.4-0.3-12.5-0.9c-8-1.2-15.8-3.8-22.8-7.8c-8-4.6-14.7-11.2-19.3-19.2l-1.1-1.9l2.1,0.4
		c15.2,2.9,33.1,4.1,51.7,3.6h0.2l0.2,0.1c15.4,5.8,31.5,9.8,47.8,11.9l3.2,0.4l-2.8,1.5C276.4,236,260.2,240.1,244.8,240.1z
		 M193.1,213c4.4,6.9,10.4,12.6,17.4,16.6c6.8,3.9,14.4,6.4,22.1,7.6c17.5,2.7,37-0.6,55.1-9.5c-15.3-2.2-30.4-6.1-44.9-11.5
		C226.2,216.8,209.6,215.7,193.1,213z"/>
	<path class="st5" d="M285,123.3c-15.5-5.8-31.7-9.8-48.1-11.9c-11.8,6.1-22.3,14.3-31.2,24.3c12.6-3.7,25.5-6.6,38.5-8.6
		C257.8,125,271.4,123.7,285,123.3z"/>
	<path d="M202.7,137.6l2.3-2.6c8.9-10,19.6-18.3,31.4-24.5l0.3-0.1h0.3c16.5,2.1,32.7,6.2,48.3,12l4.8,1.8l-5.1,0.1
		c-13.6,0.4-27.2,1.7-40.6,3.8c-13,2-25.8,4.8-38.4,8.5L202.7,137.6z M237.1,112.4c-10.5,5.5-20,12.7-28.2,21.3
		c11.6-3.2,23.3-5.8,35.2-7.6c11.8-1.8,23.7-3,35.7-3.6C266,117.7,251.7,114.3,237.1,112.4z"/>
	<path class="st5" d="M322.3,202.9c-12.6,3.7-25.5,6.6-38.5,8.6c-13.5,2.1-27.1,3.4-40.7,3.8c15.5,5.8,31.6,9.9,48.1,12
		C302.9,221,313.5,212.8,322.3,202.9z"/>
	<path d="M291.4,228.2H291c-16.5-2.1-32.7-6.2-48.3-12l-4.8-1.8l5.1-0.1c13.6-0.4,27.2-1.6,40.6-3.7c13-2,25.8-4.8,38.4-8.5l3.4-1
		l-2.3,2.6c-8.9,10-19.6,18.3-31.5,24.5L291.4,228.2z M248.4,216c13.8,4.8,28.1,8.2,42.7,10.1c10.5-5.5,20-12.7,28.2-21.3
		c-11.6,3.2-23.3,5.8-35.2,7.6C272.2,214.3,260.2,215.5,248.4,216L248.4,216z"/>
	<path class="st5" d="M243.1,215.2c-11.1-4.1-21.9-9.2-32.2-15.1c-9.3-5.3-18.1-11.5-26.1-18.6c-1,10.4,1.2,20.9,6.3,30.1
		C206.2,214.5,224,215.7,243.1,215.2z"/>
	<path d="M234.6,216.3c-14.6,0.1-29.3-1.1-43.7-3.7l-0.5-0.1l-0.2-0.4c-5.2-9.3-7.4-20-6.4-30.6l0.2-2l1.5,1.4
		c8,7,16.7,13.2,25.9,18.4c10.2,5.9,20.9,10.9,32,15l4.8,1.8l-5.1,0.1C240.3,216.3,237.4,216.3,234.6,216.3z M191.8,210.7
		c15.2,2.6,30.7,3.8,46.2,3.6c-9.5-3.8-18.7-8.2-27.5-13.3c-8.8-5-17-10.8-24.7-17.3C185.2,193.1,187.3,202.5,191.8,210.7z"/>
	<path class="st5" d="M343.3,156.9c1-10.4-1.2-20.9-6.3-30.1c-15.1-2.8-32.9-4.1-51.9-3.6c11.1,4.1,21.9,9.2,32.1,15
		C326.5,143.7,335.2,149.9,343.3,156.9z"/>
	<path d="M344.1,159l-1.5-1.4c-8-7-16.7-13.2-25.9-18.4c-10.2-5.9-20.9-10.9-32-15l-4.8-1.8l5.1-0.1c18.8-0.5,36.8,0.7,52.1,3.6
		l0.5,0.1l0.2,0.4c5.2,9.3,7.4,20,6.5,30.7L344.1,159z M290.1,124.2c9.5,3.8,18.7,8.2,27.5,13.3c8.8,5,17,10.8,24.7,17.3
		c0.5-9.4-1.6-18.8-6-27.1C321.1,125.1,305.6,123.9,290.1,124.2L290.1,124.2z"/>
	<path class="st5" d="M184.8,181.6c8,7.1,16.8,13.3,26.1,18.6c10.3,5.9,21,10.9,32.2,15.1c13.6-0.4,27.2-1.6,40.7-3.8
		c13-2,25.9-4.8,38.5-8.6c6-6.7,10.9-14.2,14.6-22.3c3.5-7.4,5.6-15.4,6.4-23.6c-8-7.1-16.8-13.3-26.1-18.6
		c-10.3-5.9-21-10.9-32.1-15c-13.7,0.4-27.3,1.6-40.8,3.7c-13,2-25.9,4.8-38.5,8.6c-5.9,6.7-10.9,14.2-14.6,22.3
		C187.7,165.4,185.5,173.4,184.8,181.6z"/>
	<path d="M242.9,216.2l-0.2-0.1c-11.2-4.1-22-9.2-32.3-15.1c-9.4-5.3-18.2-11.6-26.3-18.7l-0.4-0.3v-0.5c0.7-8.3,2.9-16.4,6.4-23.9
		c3.8-8.2,8.8-15.8,14.8-22.6l0.2-0.2l0.3-0.1c12.7-3.7,25.6-6.6,38.6-8.6c13.5-2.1,27.2-3.4,40.9-3.8h0.2l0.2,0.1
		c11.2,4.1,22,9.2,32.3,15.1c9.4,5.3,18.2,11.6,26.3,18.7l0.4,0.3v0.5c-0.7,8.3-2.9,16.4-6.4,23.9c-3.8,8.2-8.8,15.8-14.8,22.6
		l-0.2,0.2l-0.3,0.1c-12.7,3.7-25.6,6.6-38.6,8.6c-13.5,2.1-27.2,3.4-40.8,3.8L242.9,216.2z M185.8,181.2c7.9,6.9,16.5,13,25.6,18.1
		c10.2,5.8,20.8,10.8,31.8,14.9c13.5-0.4,27-1.6,40.4-3.7c12.9-2,25.6-4.8,38.1-8.5c5.8-6.6,10.6-13.9,14.3-21.9
		c3.4-7.2,5.5-14.9,6.2-22.8c-7.9-6.9-16.5-12.9-25.6-18.1c-10.2-5.8-20.8-10.8-31.8-14.9c-13.5,0.4-27,1.6-40.4,3.7
		c-12.9,2-25.6,4.8-38.1,8.5c-5.8,6.6-10.6,13.9-14.3,21.9C188.7,165.6,186.6,173.3,185.8,181.2L185.8,181.2z"/>
	<g>
		<path d="M278.5,160c-7.6-4.4-19.9-4.4-27.4,0c-7.6,4.4-7.5,11.5,0.1,15.9c7.6,4.4,19.9,4.4,27.4,0
			C286.1,171.5,286.1,164.4,278.5,160"/>
	</g>
	<path class="st5" d="M145.5,231.5c-1.1-2.3-1.6-4.7-1.6-7.2L144,181c0,2.5,0.6,5,1.6,7.2c2.2,4.8,6.8,9.2,13.3,12.9l-0.1,43.2
		l0.1-43.2c7.9,4.6,18.7,8.2,32.1,10.8l-0.1,43.2c-13.4-2.6-24.2-6.3-32.1-10.8C152.4,240.6,147.8,236.3,145.5,231.5z"/>
	<path class="st5" d="M191,255.2l0.1-43.2l0.3,0.1l-0.1,43.1l0.1-43.1h0.1l-0.2,43.3L191,255.2z"/>
	<path d="M191.4,211.2c-13.4-2.5-24.2-6.1-32.2-10.8c-6.4-3.7-10.8-7.9-13-12.6c-1-2.1-1.5-4.5-1.5-6.8l0,0c0-0.6-0.4-1-1-1l0,0
		c-0.6,0-1,0.4-1,1l0,0l-0.1,43.2c0,2.7,0.6,5.3,1.7,7.7c2.4,5,7,9.5,13.8,13.5c8.2,4.7,19.2,8.4,32.8,11h0.2c0.2,0,0.5-0.1,0.6-0.2
		c0.2-0.2,0.4-0.5,0.4-0.8l0.1-43.2C192.2,211.7,191.8,211.3,191.4,211.2z"/>
	<path class="st5" d="M210.2,274.1c-7.9-4.4-14.4-10.9-18.9-18.8l0.2-43.3c4.5,7.8,11,14.3,18.8,18.8L210.2,274.1l0.1-43.2
		c6.9,3.9,14.5,6.5,22.4,7.6c0,14.4-0.1,28.8-0.1,43.3c0.1-14.4,0.1-28.8,0.1-43.3c18.5,2.9,39.1-1,58.2-10.9l-0.1,43.1l0.1-43.1
		l0.1-0.1l-0.1,43.1l0.1-43.1h0.1l-0.1,43.3c-19.2,10-39.9,13.9-58.5,11C224.7,280.6,217.1,278,210.2,274.1z"/>
	<path d="M291.2,227.7l-0.1,43.3c-19.1,10-39.9,13.9-58.6,11c-7.9-1.2-15.6-3.8-22.5-7.7c-7.9-4.5-14.4-11-18.9-18.8l0.1-43.2
		c4.5,7.9,11,14.4,18.9,18.8c7,3.9,14.6,6.6,22.5,7.7C251.3,241.6,272.1,237.7,291.2,227.7z"/>
	<path d="M244.8,283.9c-4.2,0-8.3-0.3-12.4-0.9c-8-1.2-15.8-3.8-22.9-7.8c-8-4.5-14.7-11.2-19.3-19.2c-0.1-0.2-0.1-0.3-0.1-0.5
		l0.1-43.2c0-0.6,0.5-1,1-1c0.4,0,0.7,0.2,0.9,0.5c4.4,7.7,10.8,14.1,18.5,18.4c6.9,3.9,14.4,6.4,22.2,7.6c18.4,2.9,39-1,57.9-10.9
		c0.5-0.3,1.1-0.1,1.3,0.4c0.1,0.1,0.1,0.3,0.1,0.5l-0.1,43.2c0,0.4-0.2,0.7-0.5,0.9C276.4,279.7,260.2,283.9,244.8,283.9z
		 M192.1,255.1c4.4,7.6,10.7,13.9,18.4,18.2c6.9,3.9,14.4,6.4,22.2,7.6c18.2,2.8,38.6-0.9,57.4-10.6l0.1-41
		c-18.9,9.5-39.3,13.2-57.7,10.4c-8-1.2-15.8-3.8-22.9-7.8c-7-4-12.9-9.5-17.4-16.2L192.1,255.1z"/>
	<path class="st5" d="M351.2,220c-13.5,7.9-34.8,10.5-60,7.4l-0.1,43.3l0,0v0.2c25.2,3.1,46.6,0.5,60.2-7.5
		c9.8-5.7,14.9-13.7,14.9-23.3l0.1-43.2c0,1.4,0.2-1.3,0,0l0,0C366.3,206.4,360.9,214.4,351.2,220"/>
	<path d="M310.7,273.2c-6.6,0-13.2-0.4-19.8-1.3c-0.5-0.1-0.9-0.5-0.9-1v-0.2l0.1-43.3c0-0.3,0.1-0.6,0.3-0.8
		c0.2-0.2,0.5-0.3,0.8-0.2c25,3.1,46,0.5,59.4-7.3l1,1.7c-13.5,7.9-34.6,10.6-59.5,7.7l-0.1,41.4c24.6,2.9,45.5,0.3,58.7-7.4
		c9.4-5.5,14.4-13.2,14.4-22.4l0.1-33.5c-2.4,5.6-7,10.4-13.6,14.2l-1-1.7c9.6-5.6,14.6-13.3,14.7-22.2l0,0c0-0.1,0-0.1,0-0.2
		c0.1-0.9,0.5-1.2,1.2-1.2c0.7,0.1,0.9,0.6,0.9,1.5c0,0.2,0,0.3-0.1,0.5l-0.1,42.7c0,9.9-5.4,18.3-15.4,24.1
		S327.6,273.2,310.7,273.2z"/>
	<path d="M341.8,223.6c-0.3-0.2-0.6-0.2-0.9-0.1c-13.1,4.3-30.2,5.4-49.6,3c-0.3,0-0.6,0.1-0.8,0.2c-0.2,0.2-0.3,0.5-0.3,0.8
		l-0.1,43.2v0.2c0,0.5,0.4,0.9,0.9,1c6.5,0.8,13.1,1.2,19.6,1.3c11.7,0,22.2-1.5,30.9-4.4c0.4-0.1,0.7-0.5,0.7-0.9v-43.5
		C342.2,224.1,342,223.8,341.8,223.6z"/>
	<path d="M246.3,238.9c-0.2-0.2-0.4-0.3-0.7-0.3l0,0c-4.3,0.1-8.5-0.2-12.8-0.9c-7.8-1.1-15.3-3.7-22.2-7.6
		c-7.7-4.4-14.1-10.7-18.5-18.4c-0.3-0.5-0.9-0.6-1.4-0.4c-0.3,0.2-0.5,0.5-0.5,0.9l-0.1,43.2c0,0.2,0,0.3,0.1,0.5
		c4.6,8,11.2,14.7,19.3,19.2c7.1,4,14.8,6.7,22.9,7.8c4.1,0.6,8.2,0.9,12.4,0.9h0.8c0.6,0,1-0.4,1-1v-43.3
		C246.6,239.3,246.5,239,246.3,238.9z"/>
	<path class="st5" d="M245.6,239.6v43.3c15-0.1,30.7-4.2,45.5-11.9l0.1-43.3C276.4,235.4,260.6,239.5,245.6,239.6z"/>
	<path d="M245.6,283.8c-0.3,0-0.5-0.1-0.7-0.3c-0.2-0.2-0.3-0.4-0.3-0.7v-43.3c0-0.6,0.4-1,1-1c15-0.1,30.6-4.2,45.2-11.8
		c0.5-0.3,1.1-0.1,1.3,0.4c0.1,0.1,0.1,0.3,0.1,0.5l-0.1,43.3c0,0.4-0.2,0.7-0.5,0.9C277.3,279.4,261.6,283.5,245.6,283.8
		L245.6,283.8z M246.6,240.5v41.3c15.2-0.5,30.1-4.4,43.5-11.5l0.1-41C276.7,236.3,261.7,240.1,246.6,240.5z"/>
</g>
<g id="Layer_3">
	<g>
		<g>
			<defs>
				<polygon id="SVGID_1_" points="149.8,45.8 177.1,29.9 204.7,45.8 177.3,61.7 				"/>
			</defs>
			<clipPath id="SVGID_00000132088674284404448220000006596456759262619017_">
				<use xlink:href="#SVGID_1_"  style="overflow:visible;"/>
			</clipPath>
			<g style="clip-path:url(#SVGID_00000132088674284404448220000006596456759262619017_);">
				<path d="M190.9,37.8c-7.6-4.4-19.9-4.4-27.4,0c-7.5,4.4-7.5,11.5,0.1,15.9c7.6,4.4,19.9,4.4,27.4,0S198.5,42.2,190.9,37.8"/>
			</g>
		</g>
	</g>
	<path d="M85.6,153.3c-9.8,0-19.7-2.2-27.2-6.5s-11.6-10.1-11.6-16.4s4.1-12,11.5-16.2c14.9-8.7,39.3-8.7,54.3,0l0,0
		c7.5,4.3,11.6,10.1,11.6,16.4c0,6.2-4.1,11.9-11.4,16.2S95.4,153.3,85.6,153.3z M85.3,109.7c-9.5,0-18.9,2.1-26.1,6.3
		c-6.7,3.9-10.4,9.1-10.4,14.5c0,5.4,3.8,10.7,10.6,14.6c14.5,8.4,37.9,8.4,52.3,0c6.8-3.9,10.5-9.1,10.5-14.5
		c0-5.4-3.8-10.6-10.6-14.6l0,0C104.3,111.8,94.8,109.7,85.3,109.7z"/>
	<path d="M286.1,70c-4.1-2.1-9-2.1-13.1,0c-3.6,2.1-3.6,5.5,0,7.6c4.1,2.1,9,2.1,13.1,0C289.7,75.4,289.7,72,286.1,70"/>
	<path d="M106.5,87.6c-4.1-2.1-9-2.1-13.1,0c-3.6,2.1-3.6,5.5,0,7.6c4.1,2.1,9,2.1,13.1,0C110.1,93,110.1,89.6,106.5,87.6"/>
	<path d="M229.3,69.7c-3.5,0.1-7-0.8-10.1-2.4c-2.9-1.7-4.5-4-4.5-6.4s1.6-4.8,4.4-6.4c5.6-3.2,14.6-3.2,20.2,0l0,0
		c2.9,1.7,4.5,4,4.5,6.5s-1.6,4.7-4.4,6.4C236.3,68.9,232.8,69.8,229.3,69.7z M229.2,54c-3.2-0.1-6.3,0.7-9.1,2.2
		c-2.2,1.3-3.5,3-3.5,4.7s1.2,3.4,3.5,4.7c5,2.9,13.2,2.9,18.2,0c2.2-1.3,3.5-3,3.4-4.7s-1.2-3.4-3.5-4.7
		C235.5,54.6,232.4,53.9,229.2,54z"/>
	<path d="M118.2,66.2c-3,0.1-6-0.7-8.7-2.1c-2.5-1.5-3.9-3.5-3.9-5.6c0-2.2,1.4-4.2,3.9-5.6c4.8-2.8,12.6-2.8,17.4,0l0,0
		c2.5,1.5,3.9,3.5,3.9,5.6s-1.4,4.1-3.9,5.6C124.2,65.5,121.3,66.2,118.2,66.2z M118.2,52.7c-2.7-0.1-5.3,0.6-7.7,1.8
		c-1.8,1.1-2.9,2.5-2.9,3.9s1,2.8,2.9,3.9c4.8,2.5,10.5,2.5,15.4,0c1.8-1.1,2.8-2.5,2.8-3.9s-1-2.8-2.9-3.9
		C123.5,53.3,120.8,52.7,118.2,52.7z"/>
	<path d="M234.8,27c-3,0-6-0.6-8.7-2c-2.5-1.4-3.9-3.3-3.9-5.4s1.4-3.9,3.9-5.3c4.8-2.6,12.6-2.6,17.4,0c2.5,1.4,3.9,3.3,3.9,5.4
		s-1.4,3.9-3.9,5.3C240.8,26.4,237.8,27,234.8,27z M234.6,14.2c-2.7-0.1-5.3,0.6-7.7,1.8c-1.9,1-2.9,2.3-2.9,3.7
		c0,1.4,1,2.7,2.9,3.7c4.8,2.3,10.6,2.3,15.4,0c1.9-1,2.9-2.3,2.9-3.7c0-1.4-1-2.7-2.9-3.7l0,0C240,14.8,237.3,14.2,234.6,14.2z"/>
	<path d="M160.2,96.8c-3,0-6-0.6-8.7-2c-2.5-1.4-3.9-3.3-3.9-5.4s1.4-3.9,3.9-5.3c4.8-2.6,12.6-2.6,17.4,0c2.5,1.4,3.9,3.3,3.9,5.4
		s-1.4,3.9-3.9,5.3C166.2,96.1,163.2,96.8,160.2,96.8z M160.1,84c-2.7-0.1-5.3,0.6-7.7,1.8c-1.9,1-2.9,2.3-2.9,3.7
		c0,1.4,1,2.7,2.9,3.7c4.8,2.3,10.6,2.3,15.4,0c1.9-1,2.9-2.3,2.9-3.7c0-1.4-1-2.7-2.9-3.7l0,0C165.4,84.5,162.8,83.9,160.1,84z"/>
</g>
</svg>
