<?xml version="1.0" encoding="utf-8"?>
<!-- Generator: Adobe Illustrator 27.5.0, SVG Export Plug-In . SVG Version: 6.00 Build 0)  -->
<svg version="1.1" id="Layer_1" xmlns="http://www.w3.org/2000/svg" xmlns:xlink="http://www.w3.org/1999/xlink" x="0px" y="0px"
	 viewBox="0 0 474.9 371.9" style="enable-background:new 0 0 474.9 371.9;" xml:space="preserve">
<style type="text/css">
	.st0{display:none;}
	.st1{fill:#2B2F33;}
	.st2{opacity:0.4;fill:#FFFFFF;}
	.st3{fill:#FFFFFF;}
	.st4{fill:#191E1E;}
</style>
<rect x="-25" y="-18.2" class="st0" width="554.1" height="422.3"/>
<g id="Layer_2_00000015326198651101267740000013976818677263499704_">
	<path class="st1" d="M268.2,136.4c-48.3,0-91.8,13.3-122.4,34.5c-28.1,19.5-45.3,45.8-45.3,74.7c0,60.3,75.1,109.2,167.7,109.2
		c47.9,0,91-13,121.6-34c28.6-19.6,46.1-46.1,46.1-75.2C435.9,185.3,360.8,136.4,268.2,136.4L268.2,136.4z"/>
</g>
<g id="Layer_1_00000125570558034286430540000015197235846379110314_">
	<g>
		<path class="st2" d="M180.4,196.3c1,0,1.9-0.8,1.9-1.9c0-1-0.8-1.9-1.9-1.9s-1.9,0.8-1.9,1.9C178.5,195.4,179.4,196.3,180.4,196.3
			z"/>
		<path class="st2" d="M175.7,199.7c-1,0-1.9,0.9-1.9,1.9s0.9,1.9,1.9,1.9s1.9-0.9,1.9-1.9C177.6,200.5,176.7,199.7,175.7,199.7z"/>
		<path class="st2" d="M185.1,199.7c-1,0-1.9,0.9-1.9,1.9s0.9,1.9,1.9,1.9s1.9-0.9,1.9-1.9C187,200.5,186.2,199.7,185.1,199.7z"/>
		<path class="st2" d="M180.4,210.7c1,0,1.9-0.8,1.9-1.9c0-1-0.8-1.9-1.9-1.9s-1.9,0.8-1.9,1.9C178.5,209.8,179.4,210.7,180.4,210.7
			z"/>
		<path class="st2" d="M175.7,214.1c-1,0-1.9,0.9-1.9,1.9s0.9,1.9,1.9,1.9s1.9-0.9,1.9-1.9C177.6,214.9,176.7,214.1,175.7,214.1z"/>
		<path class="st2" d="M180.4,221.3c-1,0-1.9,0.9-1.9,1.9s0.9,1.9,1.9,1.9s1.9-0.9,1.9-1.9C182.3,222.1,181.4,221.3,180.4,221.3z"/>
		<path class="st2" d="M189.8,206.9c-1,0-1.9,0.9-1.9,1.9s0.9,1.9,1.9,1.9s1.9-0.9,1.9-1.9C191.7,207.7,190.9,206.9,189.8,206.9z"/>
		<path class="st2" d="M185.1,214.1c-1,0-1.9,0.9-1.9,1.9s0.9,1.9,1.9,1.9s1.9-0.9,1.9-1.9C187,214.9,186.2,214.1,185.1,214.1z"/>
		<path class="st2" d="M194.6,214.1c-1,0-1.9,0.9-1.9,1.9s0.9,1.9,1.9,1.9s1.9-0.9,1.9-1.9C196.5,214.9,195.6,214.1,194.6,214.1z"/>
		<path class="st2" d="M204,214.1c-1,0-1.9,0.9-1.9,1.9s0.9,1.9,1.9,1.9s1.9-0.9,1.9-1.9C205.9,214.9,205.1,214.1,204,214.1z"/>
		<path class="st2" d="M189.8,221.3c-1,0-1.9,0.9-1.9,1.9s0.9,1.9,1.9,1.9s1.9-0.9,1.9-1.9C191.7,222.1,190.9,221.3,189.8,221.3z"/>
		<path class="st2" d="M199.3,221.3c-1,0-1.9,0.9-1.9,1.9s0.9,1.9,1.9,1.9s1.9-0.9,1.9-1.9C201.2,222.1,200.3,221.3,199.3,221.3z"/>
		<path class="st2" d="M208.7,221.3c-1,0-1.9,0.9-1.9,1.9s0.9,1.9,1.9,1.9s1.9-0.9,1.9-1.9C210.6,222.1,209.8,221.3,208.7,221.3z"/>
		<path class="st2" d="M185.1,232.2c1,0,1.9-0.8,1.9-1.9s-0.8-1.9-1.9-1.9s-1.9,0.8-1.9,1.9S184.1,232.2,185.1,232.2z"/>
		<path class="st2" d="M194.6,228.5c-1,0-1.9,0.9-1.9,1.9s0.9,1.9,1.9,1.9s1.9-0.9,1.9-1.9C196.5,229.3,195.6,228.5,194.6,228.5z"/>
		<path class="st2" d="M204,228.5c-1,0-1.9,0.9-1.9,1.9s0.9,1.9,1.9,1.9s1.9-0.9,1.9-1.9C205.9,229.3,205.1,228.5,204,228.5z"/>
		<path class="st2" d="M213.5,228.5c-1,0-1.9,0.9-1.9,1.9s0.9,1.9,1.9,1.9s1.9-0.9,1.9-1.9C215.3,229.3,214.5,228.5,213.5,228.5z"/>
		<path class="st2" d="M222.9,228.5c-1,0-1.9,0.9-1.9,1.9s0.9,1.9,1.9,1.9s1.9-0.9,1.9-1.9C224.8,229.3,223.9,228.5,222.9,228.5z"/>
		<path class="st2" d="M189.8,235.7c-1,0-1.9,0.9-1.9,1.9s0.9,1.9,1.9,1.9s1.9-0.9,1.9-1.9C191.7,236.5,190.9,235.7,189.8,235.7z"/>
		<path class="st2" d="M199.3,235.7c-1,0-1.9,0.9-1.9,1.9s0.9,1.9,1.9,1.9s1.9-0.9,1.9-1.9C201.2,236.5,200.3,235.7,199.3,235.7z"/>
		<path class="st2" d="M208.7,235.7c-1,0-1.9,0.9-1.9,1.9s0.9,1.9,1.9,1.9s1.9-0.9,1.9-1.9C210.6,236.5,209.8,235.7,208.7,235.7z"/>
		<path class="st2" d="M218.2,235.7c-1,0-1.9,0.9-1.9,1.9s0.9,1.9,1.9,1.9s1.9-0.9,1.9-1.9C220.1,236.5,219.2,235.7,218.2,235.7z"/>
		<path class="st2" d="M227.6,235.7c-1,0-1.9,0.9-1.9,1.9s0.9,1.9,1.9,1.9s1.9-0.9,1.9-1.9C229.5,236.5,228.7,235.7,227.6,235.7z"/>
		<path class="st2" d="M237.1,235.7c-1,0-1.9,0.9-1.9,1.9s0.9,1.9,1.9,1.9s1.9-0.9,1.9-1.9C239,236.5,238.1,235.7,237.1,235.7z"/>
		<path class="st2" d="M194.6,242.8c-1,0-1.9,0.9-1.9,1.9s0.9,1.9,1.9,1.9s1.9-0.9,1.9-1.9S195.6,242.8,194.6,242.8z"/>
		<path class="st2" d="M204,242.8c-1,0-1.9,0.9-1.9,1.9s0.9,1.9,1.9,1.9s1.9-0.9,1.9-1.9S205.1,242.8,204,242.8z"/>
		<path class="st2" d="M213.5,242.8c-1,0-1.9,0.9-1.9,1.9s0.9,1.9,1.9,1.9s1.9-0.9,1.9-1.9S214.5,242.8,213.5,242.8z"/>
		<path class="st2" d="M222.9,242.8c-1,0-1.9,0.9-1.9,1.9s0.9,1.9,1.9,1.9s1.9-0.9,1.9-1.9S223.9,242.8,222.9,242.8z"/>
		<path class="st2" d="M232.3,242.8c-1,0-1.9,0.9-1.9,1.9s0.9,1.9,1.9,1.9s1.9-0.9,1.9-1.9S233.4,242.8,232.3,242.8z"/>
		<path class="st2" d="M241.8,242.8c-1,0-1.9,0.9-1.9,1.9s0.9,1.9,1.9,1.9s1.9-0.9,1.9-1.9S242.8,242.8,241.8,242.8z"/>
		<path class="st2" d="M251.2,242.8c-1,0-1.9,0.9-1.9,1.9s0.9,1.9,1.9,1.9s1.9-0.9,1.9-1.9S252.3,242.8,251.2,242.8z"/>
		<path class="st2" d="M208.7,253.8c1,0,1.9-0.8,1.9-1.9s-0.8-1.9-1.9-1.9c-1,0-1.9,0.8-1.9,1.9S207.7,253.8,208.7,253.8z"/>
		<path class="st2" d="M218.2,250c-1,0-1.9,0.9-1.9,1.9s0.9,1.9,1.9,1.9s1.9-0.9,1.9-1.9C220.1,250.9,219.2,250,218.2,250z"/>
		<path class="st2" d="M227.6,250c-1,0-1.9,0.9-1.9,1.9s0.9,1.9,1.9,1.9s1.9-0.9,1.9-1.9S228.7,250,227.6,250z"/>
		<path class="st2" d="M237.1,250c-1,0-1.9,0.9-1.9,1.9s0.9,1.9,1.9,1.9s1.9-0.9,1.9-1.9S238.1,250,237.1,250z"/>
		<path class="st2" d="M246.5,250c-1,0-1.9,0.9-1.9,1.9s0.9,1.9,1.9,1.9s1.9-0.9,1.9-1.9S247.6,250,246.5,250z"/>
		<path class="st2" d="M256,253.8c1,0,1.9-0.8,1.9-1.9S257,250,256,250s-1.9,0.8-1.9,1.9S254.9,253.8,256,253.8z"/>
		<path class="st2" d="M265.4,250c-1,0-1.9,0.9-1.9,1.9s0.9,1.9,1.9,1.9s1.9-0.9,1.9-1.9S266.5,250,265.4,250z"/>
		<path class="st2" d="M222.9,257.2c-1,0-1.9,0.9-1.9,1.9s0.9,1.9,1.9,1.9s1.9-0.9,1.9-1.9C224.8,258.1,223.9,257.2,222.9,257.2z"/>
		<path class="st2" d="M232.3,257.2c-1,0-1.9,0.9-1.9,1.9s0.9,1.9,1.9,1.9s1.9-0.9,1.9-1.9S233.4,257.2,232.3,257.2z"/>
		<path class="st2" d="M241.8,257.2c-1,0-1.9,0.9-1.9,1.9s0.9,1.9,1.9,1.9s1.9-0.9,1.9-1.9S242.8,257.2,241.8,257.2z"/>
		<path class="st2" d="M251.2,257.2c-1,0-1.9,0.9-1.9,1.9s0.9,1.9,1.9,1.9s1.9-0.9,1.9-1.9C253.1,258.1,252.3,257.2,251.2,257.2z"/>
		<path class="st2" d="M260.7,257.2c-1,0-1.9,0.9-1.9,1.9s0.9,1.9,1.9,1.9s1.9-0.9,1.9-1.9S261.7,257.2,260.7,257.2z"/>
		<path class="st2" d="M270.1,257.2c-1,0-1.9,0.9-1.9,1.9s0.9,1.9,1.9,1.9c1.1,0,1.9-0.9,1.9-1.9S271.2,257.2,270.1,257.2z"/>
		<path class="st2" d="M279.6,257.2c-1,0-1.9,0.9-1.9,1.9s0.9,1.9,1.9,1.9s1.9-0.9,1.9-1.9S280.6,257.2,279.6,257.2z"/>
		<path class="st2" d="M227.6,264.4c-1,0-1.9,0.9-1.9,1.9s0.9,1.9,1.9,1.9s1.9-0.9,1.9-1.9S228.7,264.4,227.6,264.4z"/>
		<path class="st2" d="M237.1,264.4c-1,0-1.9,0.9-1.9,1.9s0.9,1.9,1.9,1.9s1.9-0.9,1.9-1.9S238.1,264.4,237.1,264.4z"/>
		<path class="st2" d="M246.5,264.4c-1,0-1.9,0.9-1.9,1.9s0.9,1.9,1.9,1.9s1.9-0.9,1.9-1.9S247.6,264.4,246.5,264.4z"/>
		<path class="st2" d="M256,264.4c-1,0-1.9,0.9-1.9,1.9s0.9,1.9,1.9,1.9s1.9-0.9,1.9-1.9S257,264.4,256,264.4z"/>
		<path class="st2" d="M265.4,264.4c-1,0-1.9,0.9-1.9,1.9s0.9,1.9,1.9,1.9s1.9-0.9,1.9-1.9S266.5,264.4,265.4,264.4z"/>
		<path class="st2" d="M274.8,264.4c-1,0-1.9,0.9-1.9,1.9s0.9,1.9,1.9,1.9s1.9-0.9,1.9-1.9C276.7,265.3,275.9,264.4,274.8,264.4z"/>
		<path class="st2" d="M284.3,264.4c-1,0-1.9,0.9-1.9,1.9s0.9,1.9,1.9,1.9s1.9-0.9,1.9-1.9C286.2,265.3,285.3,264.4,284.3,264.4z"/>
		<path class="st3" d="M379.6,264.6c3.2-3.5,4.8-8.7,4.8-14.9l0.3-132.7L297,66.5l22.2-12.8l22.6,13.1l33.5-19.4
			c0.5-0.3,0.8-0.7,1.1-1.1l7.2,4l19.3-11.1l-9.7-5.4l-9.7-5.4l-19.3,11.1l6.8,3.8l-29.2,16.8L319.2,47l-28,16.2l-23.6-13.6
			l26.2-15.3c1.4-0.8,1.8-2.6,1-4s-2.6-1.8-4-1l-29.1,17L217,20.4l-14.6,8.7L164.5,7.3v84.2l10,5.7l-37.8,22.2l-10.5-5.9l-26.6,15.4
			l26.8,15l26.6-15.4l-10.5-5.9l37.7-22.1l3,1.7v54.9l-25.6-25.6V208l20.2-19.5h5.7c0.4,0.4,0.8,0.6,1.4,0.6c0.6,0,1-0.2,1.4-0.6
			c0.6,1.6,1.3,3.1,2,4.6c-0.3,0.3-0.5,0.8-0.5,1.3c0,1,0.9,1.9,1.9,1.9c0.1,0,0.2,0,0.3,0c0.9,1.5,1.8,3,2.8,4.4
			c-0.1,0.3-0.2,0.6-0.2,0.9c0,1,0.9,1.9,1.9,1.9c0.1,0,0.3,0,0.4,0c1,1.3,2.1,2.6,3.3,3.8c-0.5,0.3-0.8,0.9-0.8,1.6
			c0,1,0.9,1.9,1.9,1.9c0.7,0,1.2-0.3,1.6-0.9c2.2,2,4.6,3.9,7.1,5.6l10.2,5.9c-1,0-1.8,0.9-1.8,1.9s0.9,1.9,1.9,1.9
			s1.9-0.9,1.9-1.9c0-0.3-0.1-0.6-0.2-0.9l11.4,6.6c-0.5,0.4-0.8,0.9-0.8,1.5c0,1,0.9,1.9,1.9,1.9s1.8-0.7,1.9-1.7l10.6,6.1
			c-0.1,0.2-0.2,0.5-0.2,0.8c0,1,0.9,1.9,1.9,1.9c0.7,0,1.2-0.3,1.6-0.9l10.7,6.2c0,1,0.9,1.9,1.9,1.9c0.3,0,0.7-0.1,0.9-0.2
			l11.9,6.9c0.2,0.2,0.5,0.4,0.9,0.5l18.7,10.8c-0.7,0.3-1.2,1-1.2,1.8c0,1,0.9,1.9,1.9,1.9s1.9-0.9,1.9-1.9c0-0.1,0-0.2,0-0.3
			l10.9,6.3c-0.3,0.3-0.5,0.8-0.5,1.2c0,1,0.9,1.9,1.9,1.9c0.8,0,1.5-0.5,1.8-1.3l10.6,6.1c0,0.2-0.1,0.3-0.1,0.5
			c0,1,0.9,1.9,1.9,1.9c0.5,0,1-0.2,1.3-0.5l2.4,1.4c2.8,1.8,5.8,2.8,9,3.3c-0.2,0.3-0.4,0.7-0.4,1.1c0,1,0.9,1.9,1.9,1.9
			s1.9-0.9,1.9-1.9c0-0.3-0.1-0.5-0.2-0.8c2.7,0,5.3-0.7,7.3-2l4.5-2.6c0.2,0.1,0.4,0.1,0.6,0.1c0.9,0,1.7-0.7,1.9-1.5l10.9-6.3
			c0.4,0.4,0.8,0.6,1.4,0.6c1,0,1.9-0.9,1.9-1.9c0-0.2,0-0.4-0.1-0.6l9.9-5.7c0.2-0.1,0.5-0.3,0.7-0.4c0.2,0.8,1,1.4,1.8,1.4
			c1,0,1.9-0.9,1.9-1.9C380.6,265.6,380.2,264.9,379.6,264.6L379.6,264.6z M126.5,137.2l-15-8.4l14.9-8.6l15,8.4L126.5,137.2z
			 M329.1,109v11.8l-138-79.4l10.4-6L329.1,109z M231.6,97.6c-0.5-1.4-0.8-2.9-0.9-4.5c0-1.4,0.4-2.5,0.9-2.8s1.6-0.3,3.1,0.6
			c1.3,0.8,2.4,1.8,3.4,2.9L231.6,97.6z M240.9,98.9c0.4,1.3,0.7,2.6,0.8,4c0,1.4-0.4,2.5-0.9,2.8s-1.6,0.2-3.1-0.6
			c-1.2-0.7-2.2-1.6-3.1-2.5L240.9,98.9z M234.7,110.1L234.7,110.1c1.9,1.1,3.7,1.6,5.4,1.6c1.3,0,2.5-0.3,3.6-1
			c2.5-1.4,3.8-4.2,3.8-8c-0.2-3.3-1.2-6.5-2.7-9.3c0,0,0-0.1-0.1-0.1c0,0,0,0,0-0.1c-1.7-3-4.1-5.6-7.1-7.4
			c-3.3-1.9-6.4-2.1-8.9-0.6c-2.5,1.4-3.8,4.2-3.8,8c0.2,2.6,0.7,5.1,1.7,7.3l-17.8,10.4l-20-11.5v-4l11.6-6.8
			c1.5,1.9,3.3,3.6,5.4,4.8h0.1c1.8,1.1,3.6,1.6,5.3,1.6c1.3,0,2.5-0.3,3.6-1c2.5-1.4,3.8-4.2,3.8-8c-0.4-7-3.9-13.2-9.9-17.2
			c-3.2-1.9-6.4-2.1-8.9-0.6c-1.5,0.8-3.9,3-3.9,8.4c0.1,2.4,0.7,4.8,1.5,6.9l-8.7,5.1V45.7l140.4,81.2v53.6l-114.6-66l15-8.8
			C231,107.4,232.7,108.9,234.7,110.1L234.7,110.1z M202.6,80.8c-0.4-1.3-0.7-2.7-0.8-4.1c0-1.9,0.5-2.9,1-3.2
			c0.5-0.3,1.5-0.2,2.9,0.5c1.3,0.9,2.4,1.9,3.3,3L202.6,80.8z M211.9,82c0.5,1.4,0.8,2.9,0.9,4.4c0,1.4-0.4,2.5-0.9,2.8
			s-1.5,0.3-3.1-0.6c-1.3-0.8-2.4-1.7-3.3-2.8L211.9,82z M179.4,94.4l-9.8-5.6V16.9l27.1,15.7l-13,7.4v51.9L179.4,94.4z
			 M342.9,281.1h-0.7l-0.7,0.3h-0.7l-0.7,0.7H335l-1-0.3h-0.3l-0.7-0.3l-1-0.3h-0.3l-0.7-0.3c-0.7-0.3-1.3-0.7-2.4-1l-117.8-68
			c-8.7-5.7-15.2-13.8-19.2-23.2h21.9l-25.2-25.3v-57.6l15,8.6l-8.2,4.8c-1.4,0.8-1.8,2.6-1,4c0.5,0.9,1.5,1.4,2.5,1.4
			c0.5,0,1-0.1,1.5-0.4l11-6.5l124.7,71.9V130l15.1,8.8v15.8l-0.3,89.6v23.9C348.6,274.3,346.6,278.7,342.9,281.1L342.9,281.1z
			 M352,133.9l-18.2-10.5V105l-4.7-2.7L207.3,31.9l10.1-5.8l160.5,92.6L352,133.9z"/>
		<path class="st2" d="M241.8,271.6c-1,0-1.9,0.9-1.9,1.9c0,1.1,0.9,1.9,1.9,1.9s1.9-0.9,1.9-1.9S242.8,271.6,241.8,271.6z"/>
		<path class="st2" d="M251.2,271.6c-1,0-1.9,0.9-1.9,1.9c0,1.1,0.9,1.9,1.9,1.9s1.9-0.9,1.9-1.9
			C253.1,272.5,252.3,271.6,251.2,271.6z"/>
		<path class="st2" d="M260.7,271.6c-1,0-1.9,0.9-1.9,1.9c0,1.1,0.9,1.9,1.9,1.9s1.9-0.9,1.9-1.9S261.7,271.6,260.7,271.6z"/>
		<path class="st2" d="M270.1,271.6c-1,0-1.9,0.9-1.9,1.9c0,1.1,0.9,1.9,1.9,1.9c1.1,0,1.9-0.9,1.9-1.9S271.2,271.6,270.1,271.6z"/>
		<path class="st2" d="M279.6,271.6c-1,0-1.9,0.9-1.9,1.9c0,1.1,0.9,1.9,1.9,1.9s1.9-0.9,1.9-1.9S280.6,271.6,279.6,271.6z"/>
		<path class="st2" d="M289,271.6c-1,0-1.9,0.9-1.9,1.9c0,1.1,0.9,1.9,1.9,1.9s1.9-0.9,1.9-1.9S290.1,271.6,289,271.6z"/>
		<path class="st2" d="M298.5,271.6c-1,0-1.9,0.9-1.9,1.9c0,1.1,0.9,1.9,1.9,1.9s1.9-0.9,1.9-1.9S299.5,271.6,298.5,271.6z"/>
		<path class="st2" d="M374,271.6c-1,0-1.9,0.9-1.9,1.9c0,1.1,0.9,1.9,1.9,1.9s1.9-0.9,1.9-1.9S375.1,271.6,374,271.6z"/>
		<path class="st2" d="M383.5,271.6c-1,0-1.9,0.9-1.9,1.9c0,1.1,0.9,1.9,1.9,1.9s1.9-0.9,1.9-1.9S384.5,271.6,383.5,271.6z"/>
		<path class="st2" d="M256,278.8c-1,0-1.9,0.9-1.9,1.9s0.9,1.9,1.9,1.9s1.9-0.9,1.9-1.9C257.9,279.7,257,278.8,256,278.8z"/>
		<path class="st2" d="M265.4,278.8c-1,0-1.9,0.9-1.9,1.9s0.9,1.9,1.9,1.9s1.9-0.9,1.9-1.9C267.3,279.7,266.5,278.8,265.4,278.8z"/>
		<path class="st2" d="M274.8,278.8c-1,0-1.9,0.9-1.9,1.9s0.9,1.9,1.9,1.9s1.9-0.9,1.9-1.9C276.7,279.7,275.9,278.8,274.8,278.8z"/>
		<path class="st2" d="M284.3,278.8c-1,0-1.9,0.9-1.9,1.9s0.9,1.9,1.9,1.9s1.9-0.9,1.9-1.9C286.2,279.7,285.3,278.8,284.3,278.8z"/>
		<path class="st2" d="M293.7,278.8c-1,0-1.9,0.9-1.9,1.9s0.9,1.9,1.9,1.9s1.9-0.9,1.9-1.9C295.6,279.7,294.8,278.8,293.7,278.8z"/>
		<path class="st2" d="M303.2,278.8c-1,0-1.9,0.9-1.9,1.9s0.9,1.9,1.9,1.9s1.9-0.9,1.9-1.9C305.1,279.7,304.2,278.8,303.2,278.8z"/>
		<path class="st2" d="M312.6,278.8c-1,0-1.9,0.9-1.9,1.9s0.9,1.9,1.9,1.9s1.9-0.9,1.9-1.9C314.5,279.7,313.7,278.8,312.6,278.8z"/>
		<path class="st2" d="M359.9,278.8c-1,0-1.9,0.9-1.9,1.9s0.9,1.9,1.9,1.9s1.9-0.9,1.9-1.9C361.8,279.7,360.9,278.8,359.9,278.8z"/>
		<path class="st2" d="M369.3,278.8c-1,0-1.9,0.9-1.9,1.9s0.9,1.9,1.9,1.9s1.9-0.9,1.9-1.9C371.2,279.7,370.3,278.8,369.3,278.8z"/>
		<path class="st2" d="M270.1,286c-1,0-1.9,0.9-1.9,1.9s0.9,1.9,1.9,1.9c1.1,0,1.9-0.9,1.9-1.9S271.2,286,270.1,286z"/>
		<path class="st2" d="M279.6,286c-1,0-1.9,0.9-1.9,1.9s0.9,1.9,1.9,1.9s1.9-0.9,1.9-1.9S280.6,286,279.6,286z"/>
		<path class="st2" d="M289,286c-1,0-1.9,0.9-1.9,1.9s0.9,1.9,1.9,1.9s1.9-0.9,1.9-1.9S290.1,286,289,286z"/>
		<path class="st2" d="M298.5,286c-1,0-1.9,0.9-1.9,1.9s0.9,1.9,1.9,1.9s1.9-0.9,1.9-1.9S299.5,286,298.5,286z"/>
		<path class="st2" d="M307.9,286c-1,0-1.9,0.9-1.9,1.9s0.9,1.9,1.9,1.9s1.9-0.9,1.9-1.9S309,286,307.9,286z"/>
		<path class="st2" d="M317.4,286c-1,0-1.9,0.9-1.9,1.9s0.9,1.9,1.9,1.9s1.9-0.9,1.9-1.9S318.4,286,317.4,286z"/>
		<path class="st2" d="M326.8,286c-1,0-1.9,0.9-1.9,1.9s0.9,1.9,1.9,1.9s1.9-0.9,1.9-1.9C328.7,286.9,327.9,286,326.8,286z"/>
		<path class="st2" d="M345.7,286c-1,0-1.9,0.9-1.9,1.9s0.9,1.9,1.9,1.9s1.9-0.9,1.9-1.9S346.7,286,345.7,286z"/>
		<path class="st2" d="M355.1,286c-1,0-1.9,0.9-1.9,1.9s0.9,1.9,1.9,1.9s1.9-0.9,1.9-1.9S356.2,286,355.1,286z"/>
		<path class="st2" d="M364.6,286c-1,0-1.9,0.9-1.9,1.9s0.9,1.9,1.9,1.9s1.9-0.9,1.9-1.9S365.6,286,364.6,286z"/>
		<path class="st2" d="M378.8,278.8c-1,0-1.9,0.9-1.9,1.9s0.9,1.9,1.9,1.9s1.9-0.9,1.9-1.9C380.6,279.7,379.8,278.8,378.8,278.8z"/>
		<path class="st2" d="M374,286c-1,0-1.9,0.9-1.9,1.9s0.9,1.9,1.9,1.9s1.9-0.9,1.9-1.9S375.1,286,374,286z"/>
		<path class="st2" d="M284.3,293.2c-1,0-1.9,0.9-1.9,1.9s0.9,1.9,1.9,1.9s1.9-0.9,1.9-1.9C286.2,294.1,285.3,293.2,284.3,293.2z"/>
		<path class="st2" d="M293.7,293.2c-1,0-1.9,0.9-1.9,1.9s0.9,1.9,1.9,1.9s1.9-0.9,1.9-1.9S294.8,293.2,293.7,293.2z"/>
		<path class="st2" d="M303.2,297c1,0,1.9-0.8,1.9-1.9c0-1-0.8-1.9-1.9-1.9c-1,0-1.9,0.8-1.9,1.9C301.3,296.1,302.1,297,303.2,297z"
			/>
		<path class="st2" d="M312.6,293.2c-1,0-1.9,0.9-1.9,1.9s0.9,1.9,1.9,1.9s1.9-0.9,1.9-1.9S313.7,293.2,312.6,293.2z"/>
		<path class="st2" d="M322.1,293.2c-1,0-1.9,0.9-1.9,1.9s0.9,1.9,1.9,1.9s1.9-0.9,1.9-1.9S323.1,293.2,322.1,293.2z"/>
		<path class="st2" d="M331.5,293.2c-1,0-1.9,0.9-1.9,1.9s0.9,1.9,1.9,1.9s1.9-0.9,1.9-1.9S332.6,293.2,331.5,293.2z"/>
		<path class="st2" d="M341,293.2c-1,0-1.9,0.9-1.9,1.9s0.9,1.9,1.9,1.9s1.9-0.9,1.9-1.9S342,293.2,341,293.2z"/>
		<path class="st2" d="M350.4,297c1,0,1.9-0.8,1.9-1.9c0-1-0.8-1.9-1.9-1.9s-1.9,0.8-1.9,1.9C348.5,296.1,349.4,297,350.4,297z"/>
		<path class="st2" d="M359.9,293.2c-1,0-1.9,0.9-1.9,1.9s0.9,1.9,1.9,1.9s1.9-0.9,1.9-1.9S360.9,293.2,359.9,293.2z"/>
		<path class="st2" d="M298.5,300.4c-1,0-1.9,0.9-1.9,1.9s0.9,1.9,1.9,1.9s1.9-0.9,1.9-1.9C300.4,301.2,299.5,300.4,298.5,300.4z"/>
		<path class="st2" d="M307.9,300.4c-1,0-1.9,0.9-1.9,1.9s0.9,1.9,1.9,1.9s1.9-0.9,1.9-1.9S309,300.4,307.9,300.4z"/>
		<path class="st2" d="M317.4,300.4c-1,0-1.9,0.9-1.9,1.9s0.9,1.9,1.9,1.9s1.9-0.9,1.9-1.9C319.3,301.2,318.4,300.4,317.4,300.4z"/>
		<path class="st2" d="M326.8,300.4c-1,0-1.9,0.9-1.9,1.9s0.9,1.9,1.9,1.9s1.9-0.9,1.9-1.9C328.7,301.2,327.9,300.4,326.8,300.4z"/>
		<path class="st2" d="M336.2,300.4c-1,0-1.9,0.9-1.9,1.9s0.9,1.9,1.9,1.9s1.9-0.9,1.9-1.9S337.3,300.4,336.2,300.4z"/>
		<path class="st2" d="M345.7,300.4c-1,0-1.9,0.9-1.9,1.9s0.9,1.9,1.9,1.9s1.9-0.9,1.9-1.9S346.7,300.4,345.7,300.4z"/>
	</g>
	<path class="st4" d="M348.6,244l0.3-89.6v-15.8l-15.1-8.8v59.6l-124.7-71.9l-11,6.5c-0.5,0.3-1,0.4-1.5,0.4c-1,0-2-0.5-2.5-1.4
		c-0.8-1.4-0.4-3.2,1-4l8.2-4.8l-15-8.6v57.6l25.2,25.3h-21.9c4,9.4,10.4,17.5,19.2,23.2l117.8,68c1,0.3,1.7,0.7,2.4,1l0.7,0.3h0.3
		l1,0.3l0.7,0.3h0.3l1,0.3h5.1l0.7-0.7h0.7l0.7-0.3h0.7c3.7-2.4,5.7-6.7,5.7-13.1L348.6,244L348.6,244z"/>
	<path class="st4" d="M229.5,105.6l-15,8.8l114.6,66v-53.6L188.8,45.7v43.2l8.7-5.1c-0.9-2.2-1.4-4.5-1.5-6.9c0-5.3,2.4-7.5,3.9-8.4
		c2.5-1.5,5.6-1.2,8.9,0.6c6,4,9.5,10.2,9.9,17.2c0,3.8-1.4,6.6-3.8,8c-1.1,0.6-2.3,1-3.6,1c-1.7,0-3.5-0.5-5.3-1.6h-0.1
		c-2.1-1.3-3.9-2.9-5.4-4.8l-11.6,6.8v4l20,11.5l17.8-10.4c-0.9-2.3-1.5-4.7-1.7-7.3c0-3.8,1.4-6.6,3.8-8c2.5-1.5,5.7-1.2,8.9,0.6
		c2.9,1.8,5.4,4.3,7.1,7.4c0,0,0,0,0,0.1c0,0,0,0.1,0.1,0.1c1.6,2.8,2.5,6,2.7,9.3c0,3.8-1.4,6.6-3.8,8c-1.1,0.6-2.3,1-3.6,1
		c-1.7,0-3.5-0.5-5.3-1.6h-0.1C232.7,108.9,231,107.4,229.5,105.6L229.5,105.6z"/>
	<g>
		<path class="st3" d="M354.6,80.5l19.9,11.1l18.1-10.5L372.8,70L354.6,80.5z M380.9,81.2l-6.4,3.7l-8.1-4.5l6.4-3.7L380.9,81.2z"/>
		<path class="st3" d="M404.2,95.8l-10.9,6.3l12.4,6.9l10.9-6.3L404.2,95.8z"/>
		<path class="st3" d="M86,156.6l-41.7,24.1l42,23.5l41.7-24.1L86,156.6z M86.3,197.5L56,180.6l30-17.3l30.2,16.9L86.3,197.5z"/>
		<path class="st3" d="M135.7,214.6l-24.2,14l12.2,6.8l12.2,6.8l24.2-14l-12.2-6.8L135.7,214.6z"/>
		<path class="st3" d="M133.2,102.8l16.8-9.7l-8.5-4.7l-8.5-4.7l-16.8,9.7l8.5,4.7L133.2,102.8z"/>
		<path class="st3" d="M390.1,66l35.5,19.8l35.2-20.3l-35.5-19.8L390.1,66z M449,65.6l-23.5,13.6l-23.7-13.3l23.5-13.6L449,65.6z"/>
	</g>
</g>
</svg>
