<?xml version="1.0" encoding="utf-8"?>
<!-- Generator: Adobe Illustrator 27.2.0, SVG Export Plug-In . SVG Version: 6.00 Build 0)  -->
<svg version="1.1" xmlns="http://www.w3.org/2000/svg" xmlns:xlink="http://www.w3.org/1999/xlink" x="0px" y="0px"
	 viewBox="0 0 339 252" style="enable-background:new 0 0 339 252;" xml:space="preserve">
<style type="text/css">
	.st0{fill:#80EA6E;}
	.st1{fill:#D7E7E7;}
	.st2{fill:#6DB33F;}
	.st3{display:none;fill:#6DB33F;}
	.st4{fill:#FFFFFF;}
	.st5{fill:#191E1E;}
</style>
<g id="Layer_1">
	<path class="st0" d="M173,63L44,156l141.7,83.4L331,156L173,63z"/>
	<path class="st1" d="M10.2,117.4l103.5-59.1l50.7,27.1L60.9,144.5L10.2,117.4z"/>
	<path class="st2" d="M212.7,40.7l-42.3-25.6l-64.2,36.5L148,76l-1,18l38-22l9,6V52L212.7,40.7z"/>
	<path class="st3" d="M265,61.2l-101.7,58.1l115.6,71.2L381,132.1L265,61.2z"/>
</g>
<g id="Layer_2">
	<polygon class="st4" points="234.3,30.1 193.5,51.5 193.3,100 233.9,123.4 233.5,76.3 276.2,52.4 	"/>
	<polygon class="st4" points="106.5,51.7 66.1,75.1 67.5,122 106.1,144.3 106.2,100 145.5,76 	"/>
	<polygon class="st4" points="118,217.4 118.1,173.1 157.4,149.1 199.3,171.3 156.7,195.4 156.6,239.7 	"/>
	<g id="Layer_2_1_">
		<g id="Layer_1-2">
			<polygon class="st4" points="279,114 261.8,124.1 279,134 296,124 			"/>
			<path class="st5" d="M288.3,130.7l11.4-6.6l-21-12.1l-11.4,6.6l-12-6.9l20.5-11.8c0.3-0.2,0.5-0.5,0.5-0.9l-0.1-46.6
				c0-0.4-0.2-0.7-0.5-0.9c-0.2-0.1-0.3-0.1-0.5-0.1l-40.4-23.3c-0.3-0.2-0.7-0.2-1,0l-40.3,23.4l0,0c-0.1,0-0.1,0.1-0.2,0.1
				c0,0-0.1,0.1-0.1,0.2v0.1l-0.1,0.2c0,0,0,0,0,0.1c0,0,0,0.1,0,0.2v0.1L193,75.8l-7.4-4.3l-0.5-0.3l-36.3,21V76
				c0-0.4-0.2-0.7-0.5-0.9c-0.1-0.1-0.3-0.1-0.5-0.1l-40.3-23.3c-0.3-0.2-0.7-0.2-1,0L66.1,75.1l0,0l0,0c-0.1,0-0.1,0.1-0.2,0.1
				l-0.1,0.1l-0.1,0.1l-0.1,0.1v0.1v0.1v0.1l-0.1,46.6c0,0.4,0.2,0.7,0.5,0.9l14.5,8.4l-41.2,24.1l76.7,44.3v18
				c0,0.4,0.2,0.7,0.5,0.9l40.6,23.4c0.2,0.1,0.3,0.1,0.5,0.1h0.3c0.2,0,0.3,0,0.5-0.1l15.5-8.9l11.6,6.6l0.5,0.3l145.7-84.7
				L288.3,130.7z M278.8,133.9l-17-9.8l5.5-3.2L279,114l17,10L278.8,133.9z M196,52.4l38.3-22.3l38.6,22.3l-38.3,22.3l0,0L196,52.4
				L196,52.4z M194.9,76.8l0.1-22.7l10.6,6.1l27.9,16.1L233.4,99v2.3l-0.1,19.3l-38.6-22.3l0.1-19.3L194.9,76.8z M67.6,77.7l3.8,2.2
				l34.8,20.1v17v2.3l-0.1,25l-21.6-12.5l-2-1.1l-15-8.7L67.6,77.7z M106.9,53.7L145.5,76l-38.3,22.3L68.6,76L106.9,53.7z
				 M118,201.2v-2.3l0.1-25.8l11.4,6.6l27.2,15.7l-0.1,25.8v2.3v16.2L118,217.4V201.2z M119.1,171.4l38.3-22.3l38.6,22.3l-38.3,22.3
				l0,0L119.1,171.4L119.1,171.4z M185.9,238.1l-10.1-5.9l23.1-13.4c0.3-0.2,0.5-0.5,0.5-0.9l-0.1-46.6c0-0.4-0.2-0.7-0.5-0.9
				c-0.1-0.1-0.3-0.1-0.5-0.1l-40.4-23.2c-0.3-0.2-0.7-0.2-1,0l-40.3,23.4l0,0l0,0c-0.1,0-0.1,0.1-0.2,0.1l-0.1,0.1
				c0,0-0.1,0-0.1,0.1l-0.1,0.1v0.1v0.1v0.1l-0.1,26.3l-72.7-41.7L82.5,133l24.1,13.9c0.2,0.1,0.3,0.1,0.5,0.1h0.2
				c0.2,0,0.3,0,0.5-0.1l40.6-23.4c0.3-0.2,0.5-0.5,0.5-0.9l-0.1-28.1l36.2-21l7.9,4.6l-0.1,21c0,0.4,0.2,0.7,0.5,0.9l40.6,23.4
				c0.2,0.1,0.3,0.1,0.5,0.1h0.3c0.2,0,0.3,0,0.5-0.1l18.1-10.5l12,6.9l-7.6,4.3l21,12.1l7.6-4.3l41.3,23.9L185.9,238.1z"/>
			<polygon class="st5" points="166,59.7 178.7,52.4 165.9,45 153.3,52.4 			"/>
			<polygon class="st5" points="252.7,183.7 234.8,173.3 216.9,183.7 234.9,194.1 			"/>
			<polygon class="st5" points="92.5,163.3 86.4,159.8 80.3,163.3 86.4,166.9 			"/>
			<polygon class="st5" points="143.2,42.9 137.1,39.4 131,42.9 137.1,46.4 			"/>
			<polygon class="st5" points="180.3,137.5 201.6,149.8 222.8,137.5 201.5,125.2 			"/>
			<path class="st5" d="M49.7,77.4l-21-12.2L7.8,77.4l21,12.1L49.7,77.4z M11.7,77.4l16.9-9.8l17,9.8l-16.9,9.8L11.7,77.4z"/>
			<polygon class="st5" points="183.2,15.1 170.5,7.8 157.9,15.1 170.6,22.4 			"/>
			<polygon class="st5" points="124.2,21.4 111.5,14.1 98.9,21.4 111.6,28.8 			"/>
			<polygon class="st5" points="75.6,48.1 65.8,42.4 56.1,48.1 65.9,53.7 			"/>
			<polygon class="st5" points="175.7,100.1 166,105.8 175.8,111.4 185.5,105.8 			"/>
		</g>
	</g>
	<path class="st4" d="M124,252"/>
</g>
</svg>
